<mxfile host="65bd71144e" pages="5">
    <diagram id="_RX_baTfGMen0A_LI9Bb" name="DBTables">
        <mxGraphModel dx="2461" dy="1884" grid="1" gridSize="10" guides="1" tooltips="1" connect="1" arrows="1" fold="1" page="1" pageScale="1" pageWidth="827" pageHeight="1169" math="0" shadow="0">
            <root>
                <mxCell id="0wuf_ZBurSjKQbY5mlhR-0"/>
                <mxCell id="0wuf_ZBurSjKQbY5mlhR-1" parent="0wuf_ZBurSjKQbY5mlhR-0"/>
                <mxCell id="83F25MujSL98VKSkX-oy-141" value="USERS" style="shape=table;startSize=30;container=1;collapsible=0;childLayout=tableLayout;" parent="0wuf_ZBurSjKQbY5mlhR-1" vertex="1">
                    <mxGeometry x="-900" y="80" width="340" height="430" as="geometry"/>
                </mxCell>
                <mxCell id="83F25MujSL98VKSkX-oy-142" value="" style="shape=partialRectangle;collapsible=0;dropTarget=0;pointerEvents=0;fillColor=none;top=0;left=0;bottom=0;right=0;points=[[0,0.5],[1,0.5]];portConstraint=eastwest;" parent="83F25MujSL98VKSkX-oy-141" vertex="1">
                    <mxGeometry y="30" width="340" height="40" as="geometry"/>
                </mxCell>
                <mxCell id="83F25MujSL98VKSkX-oy-143" value="PK" style="shape=partialRectangle;html=1;whiteSpace=wrap;connectable=0;overflow=hidden;fillColor=none;top=0;left=0;bottom=0;right=0;pointerEvents=1;" parent="83F25MujSL98VKSkX-oy-142" vertex="1">
                    <mxGeometry width="53" height="40" as="geometry">
                        <mxRectangle width="53" height="40" as="alternateBounds"/>
                    </mxGeometry>
                </mxCell>
                <mxCell id="83F25MujSL98VKSkX-oy-144" value="id UUID NOT NULL" style="shape=partialRectangle;html=1;whiteSpace=wrap;connectable=0;overflow=hidden;fillColor=none;top=0;left=0;bottom=0;right=0;pointerEvents=1;align=left;" parent="83F25MujSL98VKSkX-oy-142" vertex="1">
                    <mxGeometry x="53" width="287" height="40" as="geometry">
                        <mxRectangle width="287" height="40" as="alternateBounds"/>
                    </mxGeometry>
                </mxCell>
                <mxCell id="83F25MujSL98VKSkX-oy-145" style="shape=partialRectangle;collapsible=0;dropTarget=0;pointerEvents=0;fillColor=none;top=0;left=0;bottom=0;right=0;points=[[0,0.5],[1,0.5]];portConstraint=eastwest;" parent="83F25MujSL98VKSkX-oy-141" vertex="1">
                    <mxGeometry y="70" width="340" height="40" as="geometry"/>
                </mxCell>
                <mxCell id="83F25MujSL98VKSkX-oy-146" style="shape=partialRectangle;html=1;whiteSpace=wrap;connectable=0;overflow=hidden;fillColor=none;top=0;left=0;bottom=0;right=0;pointerEvents=1;" parent="83F25MujSL98VKSkX-oy-145" vertex="1">
                    <mxGeometry width="53" height="40" as="geometry">
                        <mxRectangle width="53" height="40" as="alternateBounds"/>
                    </mxGeometry>
                </mxCell>
                <mxCell id="83F25MujSL98VKSkX-oy-147" value="first VARCHAR(20)" style="shape=partialRectangle;html=1;whiteSpace=wrap;connectable=0;overflow=hidden;fillColor=none;top=0;left=0;bottom=0;right=0;pointerEvents=1;align=left;" parent="83F25MujSL98VKSkX-oy-145" vertex="1">
                    <mxGeometry x="53" width="287" height="40" as="geometry">
                        <mxRectangle width="287" height="40" as="alternateBounds"/>
                    </mxGeometry>
                </mxCell>
                <mxCell id="83F25MujSL98VKSkX-oy-148" style="shape=partialRectangle;collapsible=0;dropTarget=0;pointerEvents=0;fillColor=none;top=0;left=0;bottom=0;right=0;points=[[0,0.5],[1,0.5]];portConstraint=eastwest;" parent="83F25MujSL98VKSkX-oy-141" vertex="1">
                    <mxGeometry y="110" width="340" height="40" as="geometry"/>
                </mxCell>
                <mxCell id="83F25MujSL98VKSkX-oy-149" style="shape=partialRectangle;html=1;whiteSpace=wrap;connectable=0;overflow=hidden;fillColor=none;top=0;left=0;bottom=0;right=0;pointerEvents=1;" parent="83F25MujSL98VKSkX-oy-148" vertex="1">
                    <mxGeometry width="53" height="40" as="geometry">
                        <mxRectangle width="53" height="40" as="alternateBounds"/>
                    </mxGeometry>
                </mxCell>
                <mxCell id="83F25MujSL98VKSkX-oy-150" value="last&amp;nbsp;&lt;span style=&quot;color: rgb(0, 0, 0);&quot;&gt;VARCHAR(20)&lt;/span&gt;" style="shape=partialRectangle;html=1;whiteSpace=wrap;connectable=0;overflow=hidden;fillColor=none;top=0;left=0;bottom=0;right=0;pointerEvents=1;align=left;" parent="83F25MujSL98VKSkX-oy-148" vertex="1">
                    <mxGeometry x="53" width="287" height="40" as="geometry">
                        <mxRectangle width="287" height="40" as="alternateBounds"/>
                    </mxGeometry>
                </mxCell>
                <mxCell id="83F25MujSL98VKSkX-oy-151" style="shape=partialRectangle;collapsible=0;dropTarget=0;pointerEvents=0;fillColor=none;top=0;left=0;bottom=0;right=0;points=[[0,0.5],[1,0.5]];portConstraint=eastwest;" parent="83F25MujSL98VKSkX-oy-141" vertex="1">
                    <mxGeometry y="150" width="340" height="40" as="geometry"/>
                </mxCell>
                <mxCell id="83F25MujSL98VKSkX-oy-152" style="shape=partialRectangle;html=1;whiteSpace=wrap;connectable=0;overflow=hidden;fillColor=none;top=0;left=0;bottom=0;right=0;pointerEvents=1;" parent="83F25MujSL98VKSkX-oy-151" vertex="1">
                    <mxGeometry width="53" height="40" as="geometry">
                        <mxRectangle width="53" height="40" as="alternateBounds"/>
                    </mxGeometry>
                </mxCell>
                <mxCell id="83F25MujSL98VKSkX-oy-153" value="email&amp;nbsp;&lt;span style=&quot;color: rgb(0, 0, 0);&quot;&gt;VARCHAR(50) NOT NULL UNIQUE&lt;/span&gt;" style="shape=partialRectangle;html=1;whiteSpace=wrap;connectable=0;overflow=hidden;fillColor=none;top=0;left=0;bottom=0;right=0;pointerEvents=1;align=left;" parent="83F25MujSL98VKSkX-oy-151" vertex="1">
                    <mxGeometry x="53" width="287" height="40" as="geometry">
                        <mxRectangle width="287" height="40" as="alternateBounds"/>
                    </mxGeometry>
                </mxCell>
                <mxCell id="83F25MujSL98VKSkX-oy-154" style="shape=partialRectangle;collapsible=0;dropTarget=0;pointerEvents=0;fillColor=none;top=0;left=0;bottom=0;right=0;points=[[0,0.5],[1,0.5]];portConstraint=eastwest;" parent="83F25MujSL98VKSkX-oy-141" vertex="1">
                    <mxGeometry y="190" width="340" height="40" as="geometry"/>
                </mxCell>
                <mxCell id="83F25MujSL98VKSkX-oy-155" style="shape=partialRectangle;html=1;whiteSpace=wrap;connectable=0;overflow=hidden;fillColor=none;top=0;left=0;bottom=0;right=0;pointerEvents=1;" parent="83F25MujSL98VKSkX-oy-154" vertex="1">
                    <mxGeometry width="53" height="40" as="geometry">
                        <mxRectangle width="53" height="40" as="alternateBounds"/>
                    </mxGeometry>
                </mxCell>
                <mxCell id="83F25MujSL98VKSkX-oy-156" value="role&amp;nbsp;&lt;span style=&quot;color: rgb(0, 0, 0);&quot;&gt;VARCHAR(15) NOT NULL&lt;/span&gt;" style="shape=partialRectangle;html=1;whiteSpace=wrap;connectable=0;overflow=hidden;fillColor=none;top=0;left=0;bottom=0;right=0;pointerEvents=1;align=left;" parent="83F25MujSL98VKSkX-oy-154" vertex="1">
                    <mxGeometry x="53" width="287" height="40" as="geometry">
                        <mxRectangle width="287" height="40" as="alternateBounds"/>
                    </mxGeometry>
                </mxCell>
                <mxCell id="83F25MujSL98VKSkX-oy-157" style="shape=partialRectangle;collapsible=0;dropTarget=0;pointerEvents=0;fillColor=none;top=0;left=0;bottom=0;right=0;points=[[0,0.5],[1,0.5]];portConstraint=eastwest;" parent="83F25MujSL98VKSkX-oy-141" vertex="1">
                    <mxGeometry y="230" width="340" height="40" as="geometry"/>
                </mxCell>
                <mxCell id="83F25MujSL98VKSkX-oy-158" style="shape=partialRectangle;html=1;whiteSpace=wrap;connectable=0;overflow=hidden;fillColor=none;top=0;left=0;bottom=0;right=0;pointerEvents=1;" parent="83F25MujSL98VKSkX-oy-157" vertex="1">
                    <mxGeometry width="53" height="40" as="geometry">
                        <mxRectangle width="53" height="40" as="alternateBounds"/>
                    </mxGeometry>
                </mxCell>
                <mxCell id="83F25MujSL98VKSkX-oy-159" value="password&amp;nbsp;&lt;span style=&quot;color: rgb(0, 0, 0);&quot;&gt;VARCHAR(70)&lt;/span&gt;" style="shape=partialRectangle;html=1;whiteSpace=wrap;connectable=0;overflow=hidden;fillColor=none;top=0;left=0;bottom=0;right=0;pointerEvents=1;align=left;" parent="83F25MujSL98VKSkX-oy-157" vertex="1">
                    <mxGeometry x="53" width="287" height="40" as="geometry">
                        <mxRectangle width="287" height="40" as="alternateBounds"/>
                    </mxGeometry>
                </mxCell>
                <mxCell id="83F25MujSL98VKSkX-oy-160" style="shape=partialRectangle;collapsible=0;dropTarget=0;pointerEvents=0;fillColor=none;top=0;left=0;bottom=0;right=0;points=[[0,0.5],[1,0.5]];portConstraint=eastwest;" parent="83F25MujSL98VKSkX-oy-141" vertex="1">
                    <mxGeometry y="270" width="340" height="40" as="geometry"/>
                </mxCell>
                <mxCell id="83F25MujSL98VKSkX-oy-161" style="shape=partialRectangle;html=1;whiteSpace=wrap;connectable=0;overflow=hidden;fillColor=none;top=0;left=0;bottom=0;right=0;pointerEvents=1;" parent="83F25MujSL98VKSkX-oy-160" vertex="1">
                    <mxGeometry width="53" height="40" as="geometry">
                        <mxRectangle width="53" height="40" as="alternateBounds"/>
                    </mxGeometry>
                </mxCell>
                <mxCell id="83F25MujSL98VKSkX-oy-162" value="properties JSON NOT NULL" style="shape=partialRectangle;html=1;whiteSpace=wrap;connectable=0;overflow=hidden;fillColor=none;top=0;left=0;bottom=0;right=0;pointerEvents=1;align=left;" parent="83F25MujSL98VKSkX-oy-160" vertex="1">
                    <mxGeometry x="53" width="287" height="40" as="geometry">
                        <mxRectangle width="287" height="40" as="alternateBounds"/>
                    </mxGeometry>
                </mxCell>
                <mxCell id="83F25MujSL98VKSkX-oy-163" style="shape=partialRectangle;collapsible=0;dropTarget=0;pointerEvents=0;fillColor=none;top=0;left=0;bottom=0;right=0;points=[[0,0.5],[1,0.5]];portConstraint=eastwest;" parent="83F25MujSL98VKSkX-oy-141" vertex="1">
                    <mxGeometry y="310" width="340" height="40" as="geometry"/>
                </mxCell>
                <mxCell id="83F25MujSL98VKSkX-oy-164" style="shape=partialRectangle;html=1;whiteSpace=wrap;connectable=0;overflow=hidden;fillColor=none;top=0;left=0;bottom=0;right=0;pointerEvents=1;" parent="83F25MujSL98VKSkX-oy-163" vertex="1">
                    <mxGeometry width="53" height="40" as="geometry">
                        <mxRectangle width="53" height="40" as="alternateBounds"/>
                    </mxGeometry>
                </mxCell>
                <mxCell id="83F25MujSL98VKSkX-oy-165" value="added TIMESTAMP NOT NULL" style="shape=partialRectangle;html=1;whiteSpace=wrap;connectable=0;overflow=hidden;fillColor=none;top=0;left=0;bottom=0;right=0;pointerEvents=1;align=left;" parent="83F25MujSL98VKSkX-oy-163" vertex="1">
                    <mxGeometry x="53" width="287" height="40" as="geometry">
                        <mxRectangle width="287" height="40" as="alternateBounds"/>
                    </mxGeometry>
                </mxCell>
                <mxCell id="83F25MujSL98VKSkX-oy-166" style="shape=partialRectangle;collapsible=0;dropTarget=0;pointerEvents=0;fillColor=none;top=0;left=0;bottom=0;right=0;points=[[0,0.5],[1,0.5]];portConstraint=eastwest;" parent="83F25MujSL98VKSkX-oy-141" vertex="1">
                    <mxGeometry y="350" width="340" height="40" as="geometry"/>
                </mxCell>
                <mxCell id="83F25MujSL98VKSkX-oy-167" style="shape=partialRectangle;html=1;whiteSpace=wrap;connectable=0;overflow=hidden;fillColor=none;top=0;left=0;bottom=0;right=0;pointerEvents=1;" parent="83F25MujSL98VKSkX-oy-166" vertex="1">
                    <mxGeometry width="53" height="40" as="geometry">
                        <mxRectangle width="53" height="40" as="alternateBounds"/>
                    </mxGeometry>
                </mxCell>
                <mxCell id="83F25MujSL98VKSkX-oy-168" value="updated&lt;span style=&quot;color: rgb(0, 0, 0);&quot;&gt;&amp;nbsp;TIMESTAMP NOT NULL&lt;/span&gt;" style="shape=partialRectangle;html=1;whiteSpace=wrap;connectable=0;overflow=hidden;fillColor=none;top=0;left=0;bottom=0;right=0;pointerEvents=1;align=left;" parent="83F25MujSL98VKSkX-oy-166" vertex="1">
                    <mxGeometry x="53" width="287" height="40" as="geometry">
                        <mxRectangle width="287" height="40" as="alternateBounds"/>
                    </mxGeometry>
                </mxCell>
                <mxCell id="zvUacJSqTQP56tCecb00-25" style="shape=partialRectangle;collapsible=0;dropTarget=0;pointerEvents=0;fillColor=none;top=0;left=0;bottom=0;right=0;points=[[0,0.5],[1,0.5]];portConstraint=eastwest;" parent="83F25MujSL98VKSkX-oy-141" vertex="1">
                    <mxGeometry y="390" width="340" height="40" as="geometry"/>
                </mxCell>
                <mxCell id="zvUacJSqTQP56tCecb00-26" style="shape=partialRectangle;html=1;whiteSpace=wrap;connectable=0;overflow=hidden;fillColor=none;top=0;left=0;bottom=0;right=0;pointerEvents=1;" parent="zvUacJSqTQP56tCecb00-25" vertex="1">
                    <mxGeometry width="53" height="40" as="geometry">
                        <mxRectangle width="53" height="40" as="alternateBounds"/>
                    </mxGeometry>
                </mxCell>
                <mxCell id="zvUacJSqTQP56tCecb00-27" value="last_login&lt;span style=&quot;color: rgb(0, 0, 0);&quot;&gt;&amp;nbsp;TIMESTAMP NOT NULL&lt;/span&gt;" style="shape=partialRectangle;html=1;whiteSpace=wrap;connectable=0;overflow=hidden;fillColor=none;top=0;left=0;bottom=0;right=0;pointerEvents=1;align=left;" parent="zvUacJSqTQP56tCecb00-25" vertex="1">
                    <mxGeometry x="53" width="287" height="40" as="geometry">
                        <mxRectangle width="287" height="40" as="alternateBounds"/>
                    </mxGeometry>
                </mxCell>
                <mxCell id="83F25MujSL98VKSkX-oy-169" value="EXPRESSIONS" style="shape=table;startSize=30;container=1;collapsible=0;childLayout=tableLayout;" parent="0wuf_ZBurSjKQbY5mlhR-1" vertex="1">
                    <mxGeometry x="294" y="70" width="240" height="310" as="geometry"/>
                </mxCell>
                <mxCell id="83F25MujSL98VKSkX-oy-170" value="" style="shape=partialRectangle;collapsible=0;dropTarget=0;pointerEvents=0;fillColor=none;top=0;left=0;bottom=0;right=0;points=[[0,0.5],[1,0.5]];portConstraint=eastwest;" parent="83F25MujSL98VKSkX-oy-169" vertex="1">
                    <mxGeometry y="30" width="240" height="40" as="geometry"/>
                </mxCell>
                <mxCell id="83F25MujSL98VKSkX-oy-171" value="&lt;span&gt;PK&lt;/span&gt;" style="shape=partialRectangle;html=1;whiteSpace=wrap;connectable=0;overflow=hidden;fillColor=none;top=0;left=0;bottom=0;right=0;pointerEvents=1;" parent="83F25MujSL98VKSkX-oy-170" vertex="1">
                    <mxGeometry width="38" height="40" as="geometry">
                        <mxRectangle width="38" height="40" as="alternateBounds"/>
                    </mxGeometry>
                </mxCell>
                <mxCell id="83F25MujSL98VKSkX-oy-172" value="id&amp;nbsp;&lt;span style=&quot;color: rgb(0, 0, 0);&quot;&gt;UUID NOT NULL&lt;/span&gt;" style="shape=partialRectangle;html=1;whiteSpace=wrap;connectable=0;overflow=hidden;fillColor=none;top=0;left=0;bottom=0;right=0;pointerEvents=1;align=left;" parent="83F25MujSL98VKSkX-oy-170" vertex="1">
                    <mxGeometry x="38" width="202" height="40" as="geometry">
                        <mxRectangle width="202" height="40" as="alternateBounds"/>
                    </mxGeometry>
                </mxCell>
                <mxCell id="83F25MujSL98VKSkX-oy-173" style="shape=partialRectangle;collapsible=0;dropTarget=0;pointerEvents=0;fillColor=none;top=0;left=0;bottom=0;right=0;points=[[0,0.5],[1,0.5]];portConstraint=eastwest;" parent="83F25MujSL98VKSkX-oy-169" vertex="1">
                    <mxGeometry y="70" width="240" height="40" as="geometry"/>
                </mxCell>
                <mxCell id="83F25MujSL98VKSkX-oy-174" style="shape=partialRectangle;html=1;whiteSpace=wrap;connectable=0;overflow=hidden;fillColor=none;top=0;left=0;bottom=0;right=0;pointerEvents=1;" parent="83F25MujSL98VKSkX-oy-173" vertex="1">
                    <mxGeometry width="38" height="40" as="geometry">
                        <mxRectangle width="38" height="40" as="alternateBounds"/>
                    </mxGeometry>
                </mxCell>
                <mxCell id="83F25MujSL98VKSkX-oy-175" value="expression TEXT NOT NULL&amp;nbsp;" style="shape=partialRectangle;html=1;whiteSpace=wrap;connectable=0;overflow=hidden;fillColor=none;top=0;left=0;bottom=0;right=0;pointerEvents=1;align=left;" parent="83F25MujSL98VKSkX-oy-173" vertex="1">
                    <mxGeometry x="38" width="202" height="40" as="geometry">
                        <mxRectangle width="202" height="40" as="alternateBounds"/>
                    </mxGeometry>
                </mxCell>
                <mxCell id="83F25MujSL98VKSkX-oy-176" style="shape=partialRectangle;collapsible=0;dropTarget=0;pointerEvents=0;fillColor=none;top=0;left=0;bottom=0;right=0;points=[[0,0.5],[1,0.5]];portConstraint=eastwest;" parent="83F25MujSL98VKSkX-oy-169" vertex="1">
                    <mxGeometry y="110" width="240" height="40" as="geometry"/>
                </mxCell>
                <mxCell id="83F25MujSL98VKSkX-oy-177" style="shape=partialRectangle;html=1;whiteSpace=wrap;connectable=0;overflow=hidden;fillColor=none;top=0;left=0;bottom=0;right=0;pointerEvents=1;" parent="83F25MujSL98VKSkX-oy-176" vertex="1">
                    <mxGeometry width="38" height="40" as="geometry">
                        <mxRectangle width="38" height="40" as="alternateBounds"/>
                    </mxGeometry>
                </mxCell>
                <mxCell id="83F25MujSL98VKSkX-oy-178" value="definition&lt;span style=&quot;color: rgb(0, 0, 0);&quot;&gt;&amp;nbsp;TEXT&lt;/span&gt;" style="shape=partialRectangle;html=1;whiteSpace=wrap;connectable=0;overflow=hidden;fillColor=none;top=0;left=0;bottom=0;right=0;pointerEvents=1;align=left;" parent="83F25MujSL98VKSkX-oy-176" vertex="1">
                    <mxGeometry x="38" width="202" height="40" as="geometry">
                        <mxRectangle width="202" height="40" as="alternateBounds"/>
                    </mxGeometry>
                </mxCell>
                <mxCell id="83F25MujSL98VKSkX-oy-179" style="shape=partialRectangle;collapsible=0;dropTarget=0;pointerEvents=0;fillColor=none;top=0;left=0;bottom=0;right=0;points=[[0,0.5],[1,0.5]];portConstraint=eastwest;" parent="83F25MujSL98VKSkX-oy-169" vertex="1">
                    <mxGeometry y="150" width="240" height="40" as="geometry"/>
                </mxCell>
                <mxCell id="83F25MujSL98VKSkX-oy-180" style="shape=partialRectangle;html=1;whiteSpace=wrap;connectable=0;overflow=hidden;fillColor=none;top=0;left=0;bottom=0;right=0;pointerEvents=1;" parent="83F25MujSL98VKSkX-oy-179" vertex="1">
                    <mxGeometry width="38" height="40" as="geometry">
                        <mxRectangle width="38" height="40" as="alternateBounds"/>
                    </mxGeometry>
                </mxCell>
                <mxCell id="83F25MujSL98VKSkX-oy-181" value="example&lt;span style=&quot;color: rgb(0, 0, 0);&quot;&gt;&amp;nbsp;TEXT&lt;/span&gt;" style="shape=partialRectangle;html=1;whiteSpace=wrap;connectable=0;overflow=hidden;fillColor=none;top=0;left=0;bottom=0;right=0;pointerEvents=1;align=left;" parent="83F25MujSL98VKSkX-oy-179" vertex="1">
                    <mxGeometry x="38" width="202" height="40" as="geometry">
                        <mxRectangle width="202" height="40" as="alternateBounds"/>
                    </mxGeometry>
                </mxCell>
                <mxCell id="83F25MujSL98VKSkX-oy-188" style="shape=partialRectangle;collapsible=0;dropTarget=0;pointerEvents=0;fillColor=none;top=0;left=0;bottom=0;right=0;points=[[0,0.5],[1,0.5]];portConstraint=eastwest;" parent="83F25MujSL98VKSkX-oy-169" vertex="1">
                    <mxGeometry y="190" width="240" height="40" as="geometry"/>
                </mxCell>
                <mxCell id="83F25MujSL98VKSkX-oy-189" style="shape=partialRectangle;html=1;whiteSpace=wrap;connectable=0;overflow=hidden;fillColor=none;top=0;left=0;bottom=0;right=0;pointerEvents=1;" parent="83F25MujSL98VKSkX-oy-188" vertex="1">
                    <mxGeometry width="38" height="40" as="geometry">
                        <mxRectangle width="38" height="40" as="alternateBounds"/>
                    </mxGeometry>
                </mxCell>
                <mxCell id="83F25MujSL98VKSkX-oy-190" value="translations&amp;nbsp;&lt;span style=&quot;color: rgb(0, 0, 0);&quot;&gt;JSON NOT NULL&lt;/span&gt;" style="shape=partialRectangle;html=1;whiteSpace=wrap;connectable=0;overflow=hidden;fillColor=none;top=0;left=0;bottom=0;right=0;pointerEvents=1;align=left;" parent="83F25MujSL98VKSkX-oy-188" vertex="1">
                    <mxGeometry x="38" width="202" height="40" as="geometry">
                        <mxRectangle width="202" height="40" as="alternateBounds"/>
                    </mxGeometry>
                </mxCell>
                <mxCell id="83F25MujSL98VKSkX-oy-191" style="shape=partialRectangle;collapsible=0;dropTarget=0;pointerEvents=0;fillColor=none;top=0;left=0;bottom=0;right=0;points=[[0,0.5],[1,0.5]];portConstraint=eastwest;" parent="83F25MujSL98VKSkX-oy-169" vertex="1">
                    <mxGeometry y="230" width="240" height="40" as="geometry"/>
                </mxCell>
                <mxCell id="83F25MujSL98VKSkX-oy-192" style="shape=partialRectangle;html=1;whiteSpace=wrap;connectable=0;overflow=hidden;fillColor=none;top=0;left=0;bottom=0;right=0;pointerEvents=1;" parent="83F25MujSL98VKSkX-oy-191" vertex="1">
                    <mxGeometry width="38" height="40" as="geometry">
                        <mxRectangle width="38" height="40" as="alternateBounds"/>
                    </mxGeometry>
                </mxCell>
                <mxCell id="83F25MujSL98VKSkX-oy-193" value="added&amp;nbsp;&lt;span style=&quot;color: rgb(0, 0, 0);&quot;&gt;TIMESTAMP NOT NULL&lt;/span&gt;" style="shape=partialRectangle;html=1;whiteSpace=wrap;connectable=0;overflow=hidden;fillColor=none;top=0;left=0;bottom=0;right=0;pointerEvents=1;align=left;" parent="83F25MujSL98VKSkX-oy-191" vertex="1">
                    <mxGeometry x="38" width="202" height="40" as="geometry">
                        <mxRectangle width="202" height="40" as="alternateBounds"/>
                    </mxGeometry>
                </mxCell>
                <mxCell id="83F25MujSL98VKSkX-oy-194" style="shape=partialRectangle;collapsible=0;dropTarget=0;pointerEvents=0;fillColor=none;top=0;left=0;bottom=0;right=0;points=[[0,0.5],[1,0.5]];portConstraint=eastwest;" parent="83F25MujSL98VKSkX-oy-169" vertex="1">
                    <mxGeometry y="270" width="240" height="40" as="geometry"/>
                </mxCell>
                <mxCell id="83F25MujSL98VKSkX-oy-195" style="shape=partialRectangle;html=1;whiteSpace=wrap;connectable=0;overflow=hidden;fillColor=none;top=0;left=0;bottom=0;right=0;pointerEvents=1;" parent="83F25MujSL98VKSkX-oy-194" vertex="1">
                    <mxGeometry width="38" height="40" as="geometry">
                        <mxRectangle width="38" height="40" as="alternateBounds"/>
                    </mxGeometry>
                </mxCell>
                <mxCell id="83F25MujSL98VKSkX-oy-196" value="updated&amp;nbsp;&lt;span style=&quot;color: rgb(0, 0, 0);&quot;&gt;TIMESTAMP NOT NULL&lt;/span&gt;" style="shape=partialRectangle;html=1;whiteSpace=wrap;connectable=0;overflow=hidden;fillColor=none;top=0;left=0;bottom=0;right=0;pointerEvents=1;align=left;" parent="83F25MujSL98VKSkX-oy-194" vertex="1">
                    <mxGeometry x="38" width="202" height="40" as="geometry">
                        <mxRectangle width="202" height="40" as="alternateBounds"/>
                    </mxGeometry>
                </mxCell>
                <mxCell id="83F25MujSL98VKSkX-oy-219" value="USER_EXPRESSION" style="shape=table;startSize=30;container=1;collapsible=0;childLayout=tableLayout;" parent="0wuf_ZBurSjKQbY5mlhR-1" vertex="1">
                    <mxGeometry x="-340" y="-60" width="300" height="390" as="geometry"/>
                </mxCell>
                <mxCell id="83F25MujSL98VKSkX-oy-220" value="" style="shape=partialRectangle;collapsible=0;dropTarget=0;pointerEvents=0;fillColor=none;top=0;left=0;bottom=0;right=0;points=[[0,0.5],[1,0.5]];portConstraint=eastwest;" parent="83F25MujSL98VKSkX-oy-219" vertex="1">
                    <mxGeometry y="30" width="300" height="40" as="geometry"/>
                </mxCell>
                <mxCell id="83F25MujSL98VKSkX-oy-221" value="PK" style="shape=partialRectangle;html=1;whiteSpace=wrap;connectable=0;overflow=hidden;fillColor=none;top=0;left=0;bottom=0;right=0;pointerEvents=1;" parent="83F25MujSL98VKSkX-oy-220" vertex="1">
                    <mxGeometry width="48" height="40" as="geometry">
                        <mxRectangle width="48" height="40" as="alternateBounds"/>
                    </mxGeometry>
                </mxCell>
                <mxCell id="83F25MujSL98VKSkX-oy-222" value="user_id&amp;nbsp;&lt;span style=&quot;color: rgb(0, 0, 0);&quot;&gt;UUID NOT NULL&lt;/span&gt;" style="shape=partialRectangle;html=1;whiteSpace=wrap;connectable=0;overflow=hidden;fillColor=none;top=0;left=0;bottom=0;right=0;pointerEvents=1;align=left;" parent="83F25MujSL98VKSkX-oy-220" vertex="1">
                    <mxGeometry x="48" width="252" height="40" as="geometry">
                        <mxRectangle width="252" height="40" as="alternateBounds"/>
                    </mxGeometry>
                </mxCell>
                <mxCell id="83F25MujSL98VKSkX-oy-223" style="shape=partialRectangle;collapsible=0;dropTarget=0;pointerEvents=0;fillColor=none;top=0;left=0;bottom=0;right=0;points=[[0,0.5],[1,0.5]];portConstraint=eastwest;" parent="83F25MujSL98VKSkX-oy-219" vertex="1">
                    <mxGeometry y="70" width="300" height="40" as="geometry"/>
                </mxCell>
                <mxCell id="83F25MujSL98VKSkX-oy-224" value="&lt;span&gt;PK&lt;/span&gt;" style="shape=partialRectangle;html=1;whiteSpace=wrap;connectable=0;overflow=hidden;fillColor=none;top=0;left=0;bottom=0;right=0;pointerEvents=1;" parent="83F25MujSL98VKSkX-oy-223" vertex="1">
                    <mxGeometry width="48" height="40" as="geometry">
                        <mxRectangle width="48" height="40" as="alternateBounds"/>
                    </mxGeometry>
                </mxCell>
                <mxCell id="83F25MujSL98VKSkX-oy-225" value="word_id&amp;nbsp;&lt;span style=&quot;color: rgb(0, 0, 0);&quot;&gt;UUID NOT NULL&lt;/span&gt;" style="shape=partialRectangle;html=1;whiteSpace=wrap;connectable=0;overflow=hidden;fillColor=none;top=0;left=0;bottom=0;right=0;pointerEvents=1;align=left;" parent="83F25MujSL98VKSkX-oy-223" vertex="1">
                    <mxGeometry x="48" width="252" height="40" as="geometry">
                        <mxRectangle width="252" height="40" as="alternateBounds"/>
                    </mxGeometry>
                </mxCell>
                <mxCell id="83F25MujSL98VKSkX-oy-226" style="shape=partialRectangle;collapsible=0;dropTarget=0;pointerEvents=0;fillColor=none;top=0;left=0;bottom=0;right=0;points=[[0,0.5],[1,0.5]];portConstraint=eastwest;" parent="83F25MujSL98VKSkX-oy-219" vertex="1">
                    <mxGeometry y="110" width="300" height="40" as="geometry"/>
                </mxCell>
                <mxCell id="83F25MujSL98VKSkX-oy-227" style="shape=partialRectangle;html=1;whiteSpace=wrap;connectable=0;overflow=hidden;fillColor=none;top=0;left=0;bottom=0;right=0;pointerEvents=1;" parent="83F25MujSL98VKSkX-oy-226" vertex="1">
                    <mxGeometry width="48" height="40" as="geometry">
                        <mxRectangle width="48" height="40" as="alternateBounds"/>
                    </mxGeometry>
                </mxCell>
                <mxCell id="83F25MujSL98VKSkX-oy-228" value="active SMALLINT NOT NULL DEFAULT 1" style="shape=partialRectangle;html=1;whiteSpace=wrap;connectable=0;overflow=hidden;fillColor=none;top=0;left=0;bottom=0;right=0;pointerEvents=1;" parent="83F25MujSL98VKSkX-oy-226" vertex="1">
                    <mxGeometry x="48" width="252" height="40" as="geometry">
                        <mxRectangle width="252" height="40" as="alternateBounds"/>
                    </mxGeometry>
                </mxCell>
                <mxCell id="aWZV0PTdMZsjbV3HVovh-0" style="shape=partialRectangle;collapsible=0;dropTarget=0;pointerEvents=0;fillColor=none;top=0;left=0;bottom=0;right=0;points=[[0,0.5],[1,0.5]];portConstraint=eastwest;" parent="83F25MujSL98VKSkX-oy-219" vertex="1">
                    <mxGeometry y="150" width="300" height="40" as="geometry"/>
                </mxCell>
                <mxCell id="aWZV0PTdMZsjbV3HVovh-1" style="shape=partialRectangle;html=1;whiteSpace=wrap;connectable=0;overflow=hidden;fillColor=none;top=0;left=0;bottom=0;right=0;pointerEvents=1;" parent="aWZV0PTdMZsjbV3HVovh-0" vertex="1">
                    <mxGeometry width="48" height="40" as="geometry">
                        <mxRectangle width="48" height="40" as="alternateBounds"/>
                    </mxGeometry>
                </mxCell>
                <mxCell id="aWZV0PTdMZsjbV3HVovh-2" value="added&amp;nbsp;&lt;span style=&quot;color: rgb(0, 0, 0);&quot;&gt;TIMESTAMP NOT NULL&lt;/span&gt;" style="shape=partialRectangle;html=1;whiteSpace=wrap;connectable=0;overflow=hidden;fillColor=none;top=0;left=0;bottom=0;right=0;pointerEvents=1;align=left;" parent="aWZV0PTdMZsjbV3HVovh-0" vertex="1">
                    <mxGeometry x="48" width="252" height="40" as="geometry">
                        <mxRectangle width="252" height="40" as="alternateBounds"/>
                    </mxGeometry>
                </mxCell>
                <mxCell id="PqwiIW4v9USh9c5X_kiC-0" style="shape=partialRectangle;collapsible=0;dropTarget=0;pointerEvents=0;fillColor=none;top=0;left=0;bottom=0;right=0;points=[[0,0.5],[1,0.5]];portConstraint=eastwest;" parent="83F25MujSL98VKSkX-oy-219" vertex="1">
                    <mxGeometry y="190" width="300" height="40" as="geometry"/>
                </mxCell>
                <mxCell id="PqwiIW4v9USh9c5X_kiC-1" style="shape=partialRectangle;html=1;whiteSpace=wrap;connectable=0;overflow=hidden;fillColor=none;top=0;left=0;bottom=0;right=0;pointerEvents=1;" parent="PqwiIW4v9USh9c5X_kiC-0" vertex="1">
                    <mxGeometry width="48" height="40" as="geometry">
                        <mxRectangle width="48" height="40" as="alternateBounds"/>
                    </mxGeometry>
                </mxCell>
                <mxCell id="PqwiIW4v9USh9c5X_kiC-2" value="updated&amp;nbsp;&lt;span style=&quot;color: rgb(0, 0, 0);&quot;&gt;TIMESTAMP NOT NULL&lt;/span&gt;" style="shape=partialRectangle;html=1;whiteSpace=wrap;connectable=0;overflow=hidden;fillColor=none;top=0;left=0;bottom=0;right=0;pointerEvents=1;align=left;" parent="PqwiIW4v9USh9c5X_kiC-0" vertex="1">
                    <mxGeometry x="48" width="252" height="40" as="geometry">
                        <mxRectangle width="252" height="40" as="alternateBounds"/>
                    </mxGeometry>
                </mxCell>
                <mxCell id="83F25MujSL98VKSkX-oy-229" style="shape=partialRectangle;collapsible=0;dropTarget=0;pointerEvents=0;fillColor=none;top=0;left=0;bottom=0;right=0;points=[[0,0.5],[1,0.5]];portConstraint=eastwest;" parent="83F25MujSL98VKSkX-oy-219" vertex="1">
                    <mxGeometry y="230" width="300" height="40" as="geometry"/>
                </mxCell>
                <mxCell id="83F25MujSL98VKSkX-oy-230" style="shape=partialRectangle;html=1;whiteSpace=wrap;connectable=0;overflow=hidden;fillColor=none;top=0;left=0;bottom=0;right=0;pointerEvents=1;" parent="83F25MujSL98VKSkX-oy-229" vertex="1">
                    <mxGeometry width="48" height="40" as="geometry">
                        <mxRectangle width="48" height="40" as="alternateBounds"/>
                    </mxGeometry>
                </mxCell>
                <mxCell id="83F25MujSL98VKSkX-oy-231" value="last_practice_time&amp;nbsp;&lt;span style=&quot;color: rgb(0, 0, 0);&quot;&gt;TIMESTAMP&lt;/span&gt;" style="shape=partialRectangle;html=1;whiteSpace=wrap;connectable=0;overflow=hidden;fillColor=none;top=0;left=0;bottom=0;right=0;pointerEvents=1;align=left;" parent="83F25MujSL98VKSkX-oy-229" vertex="1">
                    <mxGeometry x="48" width="252" height="40" as="geometry">
                        <mxRectangle width="252" height="40" as="alternateBounds"/>
                    </mxGeometry>
                </mxCell>
                <mxCell id="4DL9sFnmZAeuTGDi7prn-6" style="shape=partialRectangle;collapsible=0;dropTarget=0;pointerEvents=0;fillColor=none;top=0;left=0;bottom=0;right=0;points=[[0,0.5],[1,0.5]];portConstraint=eastwest;" parent="83F25MujSL98VKSkX-oy-219" vertex="1">
                    <mxGeometry y="270" width="300" height="40" as="geometry"/>
                </mxCell>
                <mxCell id="4DL9sFnmZAeuTGDi7prn-7" style="shape=partialRectangle;html=1;whiteSpace=wrap;connectable=0;overflow=hidden;fillColor=none;top=0;left=0;bottom=0;right=0;pointerEvents=1;" parent="4DL9sFnmZAeuTGDi7prn-6" vertex="1">
                    <mxGeometry width="48" height="40" as="geometry">
                        <mxRectangle width="48" height="40" as="alternateBounds"/>
                    </mxGeometry>
                </mxCell>
                <mxCell id="4DL9sFnmZAeuTGDi7prn-8" value="knowledge_level&lt;span style=&quot;color: rgb(0, 0, 0);&quot;&gt;&amp;nbsp;NUMERIC(8, 5) DEFAULT 0&lt;/span&gt;" style="shape=partialRectangle;html=1;whiteSpace=wrap;connectable=0;overflow=hidden;fillColor=none;top=0;left=0;bottom=0;right=0;pointerEvents=1;align=left;" parent="4DL9sFnmZAeuTGDi7prn-6" vertex="1">
                    <mxGeometry x="48" width="252" height="40" as="geometry">
                        <mxRectangle width="252" height="40" as="alternateBounds"/>
                    </mxGeometry>
                </mxCell>
                <mxCell id="83F25MujSL98VKSkX-oy-232" style="shape=partialRectangle;collapsible=0;dropTarget=0;pointerEvents=0;fillColor=none;top=0;left=0;bottom=0;right=0;points=[[0,0.5],[1,0.5]];portConstraint=eastwest;" parent="83F25MujSL98VKSkX-oy-219" vertex="1">
                    <mxGeometry y="310" width="300" height="40" as="geometry"/>
                </mxCell>
                <mxCell id="83F25MujSL98VKSkX-oy-233" style="shape=partialRectangle;html=1;whiteSpace=wrap;connectable=0;overflow=hidden;fillColor=none;top=0;left=0;bottom=0;right=0;pointerEvents=1;" parent="83F25MujSL98VKSkX-oy-232" vertex="1">
                    <mxGeometry width="48" height="40" as="geometry">
                        <mxRectangle width="48" height="40" as="alternateBounds"/>
                    </mxGeometry>
                </mxCell>
                <mxCell id="83F25MujSL98VKSkX-oy-234" value="properties&amp;nbsp;&lt;span style=&quot;color: rgb(0, 0, 0);&quot;&gt;JSON NOT NULL&lt;/span&gt;" style="shape=partialRectangle;html=1;whiteSpace=wrap;connectable=0;overflow=hidden;fillColor=none;top=0;left=0;bottom=0;right=0;pointerEvents=1;align=left;" parent="83F25MujSL98VKSkX-oy-232" vertex="1">
                    <mxGeometry x="48" width="252" height="40" as="geometry">
                        <mxRectangle width="252" height="40" as="alternateBounds"/>
                    </mxGeometry>
                </mxCell>
                <mxCell id="0" style="shape=partialRectangle;collapsible=0;dropTarget=0;pointerEvents=0;fillColor=none;top=0;left=0;bottom=0;right=0;points=[[0,0.5],[1,0.5]];portConstraint=eastwest;" vertex="1" parent="83F25MujSL98VKSkX-oy-219">
                    <mxGeometry y="350" width="300" height="40" as="geometry"/>
                </mxCell>
                <mxCell id="1" style="shape=partialRectangle;html=1;whiteSpace=wrap;connectable=0;overflow=hidden;fillColor=none;top=0;left=0;bottom=0;right=0;pointerEvents=1;" vertex="1" parent="0">
                    <mxGeometry width="48" height="40" as="geometry">
                        <mxRectangle width="48" height="40" as="alternateBounds"/>
                    </mxGeometry>
                </mxCell>
                <mxCell id="2" value="practic_count INT DEFAULT 0" style="shape=partialRectangle;html=1;whiteSpace=wrap;connectable=0;overflow=hidden;fillColor=none;top=0;left=0;bottom=0;right=0;pointerEvents=1;align=left;" vertex="1" parent="0">
                    <mxGeometry x="48" width="252" height="40" as="geometry">
                        <mxRectangle width="252" height="40" as="alternateBounds"/>
                    </mxGeometry>
                </mxCell>
                <mxCell id="83F25MujSL98VKSkX-oy-235" value="SYNONYMS" style="shape=table;startSize=30;container=1;collapsible=0;childLayout=tableLayout;" parent="0wuf_ZBurSjKQbY5mlhR-1" vertex="1">
                    <mxGeometry x="-90" y="360" width="240" height="110" as="geometry"/>
                </mxCell>
                <mxCell id="83F25MujSL98VKSkX-oy-236" value="" style="shape=partialRectangle;collapsible=0;dropTarget=0;pointerEvents=0;fillColor=none;top=0;left=0;bottom=0;right=0;points=[[0,0.5],[1,0.5]];portConstraint=eastwest;" parent="83F25MujSL98VKSkX-oy-235" vertex="1">
                    <mxGeometry y="30" width="240" height="40" as="geometry"/>
                </mxCell>
                <mxCell id="83F25MujSL98VKSkX-oy-237" value="PK" style="shape=partialRectangle;html=1;whiteSpace=wrap;connectable=0;overflow=hidden;fillColor=none;top=0;left=0;bottom=0;right=0;pointerEvents=1;" parent="83F25MujSL98VKSkX-oy-236" vertex="1">
                    <mxGeometry width="38" height="40" as="geometry">
                        <mxRectangle width="38" height="40" as="alternateBounds"/>
                    </mxGeometry>
                </mxCell>
                <mxCell id="83F25MujSL98VKSkX-oy-238" value="word_id" style="shape=partialRectangle;html=1;whiteSpace=wrap;connectable=0;overflow=hidden;fillColor=none;top=0;left=0;bottom=0;right=0;pointerEvents=1;" parent="83F25MujSL98VKSkX-oy-236" vertex="1">
                    <mxGeometry x="38" width="202" height="40" as="geometry">
                        <mxRectangle width="202" height="40" as="alternateBounds"/>
                    </mxGeometry>
                </mxCell>
                <mxCell id="83F25MujSL98VKSkX-oy-239" style="shape=partialRectangle;collapsible=0;dropTarget=0;pointerEvents=0;fillColor=none;top=0;left=0;bottom=0;right=0;points=[[0,0.5],[1,0.5]];portConstraint=eastwest;" parent="83F25MujSL98VKSkX-oy-235" vertex="1">
                    <mxGeometry y="70" width="240" height="40" as="geometry"/>
                </mxCell>
                <mxCell id="83F25MujSL98VKSkX-oy-240" value="&lt;span&gt;PK&lt;/span&gt;" style="shape=partialRectangle;html=1;whiteSpace=wrap;connectable=0;overflow=hidden;fillColor=none;top=0;left=0;bottom=0;right=0;pointerEvents=1;" parent="83F25MujSL98VKSkX-oy-239" vertex="1">
                    <mxGeometry width="38" height="40" as="geometry">
                        <mxRectangle width="38" height="40" as="alternateBounds"/>
                    </mxGeometry>
                </mxCell>
                <mxCell id="83F25MujSL98VKSkX-oy-241" value="synonym_id" style="shape=partialRectangle;html=1;whiteSpace=wrap;connectable=0;overflow=hidden;fillColor=none;top=0;left=0;bottom=0;right=0;pointerEvents=1;" parent="83F25MujSL98VKSkX-oy-239" vertex="1">
                    <mxGeometry x="38" width="202" height="40" as="geometry">
                        <mxRectangle width="202" height="40" as="alternateBounds"/>
                    </mxGeometry>
                </mxCell>
                <mxCell id="83F25MujSL98VKSkX-oy-242" value="ANTONYMS" style="shape=table;startSize=30;container=1;collapsible=0;childLayout=tableLayout;" parent="0wuf_ZBurSjKQbY5mlhR-1" vertex="1">
                    <mxGeometry x="770" y="410" width="240" height="110" as="geometry"/>
                </mxCell>
                <mxCell id="83F25MujSL98VKSkX-oy-243" value="" style="shape=partialRectangle;collapsible=0;dropTarget=0;pointerEvents=0;fillColor=none;top=0;left=0;bottom=0;right=0;points=[[0,0.5],[1,0.5]];portConstraint=eastwest;" parent="83F25MujSL98VKSkX-oy-242" vertex="1">
                    <mxGeometry y="30" width="240" height="40" as="geometry"/>
                </mxCell>
                <mxCell id="83F25MujSL98VKSkX-oy-244" value="PK" style="shape=partialRectangle;html=1;whiteSpace=wrap;connectable=0;overflow=hidden;fillColor=none;top=0;left=0;bottom=0;right=0;pointerEvents=1;" parent="83F25MujSL98VKSkX-oy-243" vertex="1">
                    <mxGeometry width="38" height="40" as="geometry">
                        <mxRectangle width="38" height="40" as="alternateBounds"/>
                    </mxGeometry>
                </mxCell>
                <mxCell id="83F25MujSL98VKSkX-oy-245" value="word_id" style="shape=partialRectangle;html=1;whiteSpace=wrap;connectable=0;overflow=hidden;fillColor=none;top=0;left=0;bottom=0;right=0;pointerEvents=1;" parent="83F25MujSL98VKSkX-oy-243" vertex="1">
                    <mxGeometry x="38" width="202" height="40" as="geometry">
                        <mxRectangle width="202" height="40" as="alternateBounds"/>
                    </mxGeometry>
                </mxCell>
                <mxCell id="83F25MujSL98VKSkX-oy-246" style="shape=partialRectangle;collapsible=0;dropTarget=0;pointerEvents=0;fillColor=none;top=0;left=0;bottom=0;right=0;points=[[0,0.5],[1,0.5]];portConstraint=eastwest;" parent="83F25MujSL98VKSkX-oy-242" vertex="1">
                    <mxGeometry y="70" width="240" height="40" as="geometry"/>
                </mxCell>
                <mxCell id="83F25MujSL98VKSkX-oy-247" value="&lt;span&gt;PK&lt;/span&gt;" style="shape=partialRectangle;html=1;whiteSpace=wrap;connectable=0;overflow=hidden;fillColor=none;top=0;left=0;bottom=0;right=0;pointerEvents=1;" parent="83F25MujSL98VKSkX-oy-246" vertex="1">
                    <mxGeometry width="38" height="40" as="geometry">
                        <mxRectangle width="38" height="40" as="alternateBounds"/>
                    </mxGeometry>
                </mxCell>
                <mxCell id="83F25MujSL98VKSkX-oy-248" value="antonym_id" style="shape=partialRectangle;html=1;whiteSpace=wrap;connectable=0;overflow=hidden;fillColor=none;top=0;left=0;bottom=0;right=0;pointerEvents=1;" parent="83F25MujSL98VKSkX-oy-246" vertex="1">
                    <mxGeometry x="38" width="202" height="40" as="geometry">
                        <mxRectangle width="202" height="40" as="alternateBounds"/>
                    </mxGeometry>
                </mxCell>
                <mxCell id="83F25MujSL98VKSkX-oy-256" style="edgeStyle=orthogonalEdgeStyle;rounded=0;orthogonalLoop=1;jettySize=auto;html=1;endArrow=ERmany;endFill=0;startArrow=ERmany;startFill=0;curved=1;" parent="0wuf_ZBurSjKQbY5mlhR-1" source="83F25MujSL98VKSkX-oy-142" target="83F25MujSL98VKSkX-oy-220" edge="1">
                    <mxGeometry relative="1" as="geometry"/>
                </mxCell>
                <mxCell id="83F25MujSL98VKSkX-oy-257" style="edgeStyle=orthogonalEdgeStyle;rounded=0;orthogonalLoop=1;jettySize=auto;html=1;startArrow=ERmany;startFill=0;endArrow=ERmany;endFill=0;curved=1;" parent="0wuf_ZBurSjKQbY5mlhR-1" source="83F25MujSL98VKSkX-oy-223" target="83F25MujSL98VKSkX-oy-170" edge="1">
                    <mxGeometry relative="1" as="geometry"/>
                </mxCell>
                <mxCell id="83F25MujSL98VKSkX-oy-258" style="edgeStyle=orthogonalEdgeStyle;rounded=0;orthogonalLoop=1;jettySize=auto;html=1;startArrow=ERmany;startFill=0;endArrow=ERmany;endFill=0;curved=1;" parent="0wuf_ZBurSjKQbY5mlhR-1" source="83F25MujSL98VKSkX-oy-236" target="83F25MujSL98VKSkX-oy-170" edge="1">
                    <mxGeometry relative="1" as="geometry"/>
                </mxCell>
                <mxCell id="83F25MujSL98VKSkX-oy-259" style="edgeStyle=orthogonalEdgeStyle;rounded=0;orthogonalLoop=1;jettySize=auto;html=1;startArrow=ERmany;startFill=0;endArrow=ERmany;endFill=0;curved=1;" parent="0wuf_ZBurSjKQbY5mlhR-1" source="83F25MujSL98VKSkX-oy-239" target="83F25MujSL98VKSkX-oy-170" edge="1">
                    <mxGeometry relative="1" as="geometry"/>
                </mxCell>
                <mxCell id="83F25MujSL98VKSkX-oy-260" style="edgeStyle=orthogonalEdgeStyle;rounded=0;orthogonalLoop=1;jettySize=auto;html=1;startArrow=ERmany;startFill=0;endArrow=ERmany;endFill=0;curved=1;" parent="0wuf_ZBurSjKQbY5mlhR-1" source="83F25MujSL98VKSkX-oy-243" target="83F25MujSL98VKSkX-oy-170" edge="1">
                    <mxGeometry relative="1" as="geometry"/>
                </mxCell>
                <mxCell id="83F25MujSL98VKSkX-oy-261" style="edgeStyle=orthogonalEdgeStyle;rounded=0;orthogonalLoop=1;jettySize=auto;html=1;startArrow=ERmany;startFill=0;endArrow=ERmany;endFill=0;curved=1;" parent="0wuf_ZBurSjKQbY5mlhR-1" source="83F25MujSL98VKSkX-oy-246" target="83F25MujSL98VKSkX-oy-170" edge="1">
                    <mxGeometry relative="1" as="geometry"/>
                </mxCell>
                <mxCell id="zvUacJSqTQP56tCecb00-0" value="TAGS" style="shape=table;startSize=30;container=1;collapsible=0;childLayout=tableLayout;" parent="0wuf_ZBurSjKQbY5mlhR-1" vertex="1">
                    <mxGeometry x="1093" y="-30" width="240" height="190" as="geometry"/>
                </mxCell>
                <mxCell id="zvUacJSqTQP56tCecb00-1" value="" style="shape=partialRectangle;collapsible=0;dropTarget=0;pointerEvents=0;fillColor=none;top=0;left=0;bottom=0;right=0;points=[[0,0.5],[1,0.5]];portConstraint=eastwest;" parent="zvUacJSqTQP56tCecb00-0" vertex="1">
                    <mxGeometry y="30" width="240" height="40" as="geometry"/>
                </mxCell>
                <mxCell id="zvUacJSqTQP56tCecb00-2" value="PK" style="shape=partialRectangle;html=1;whiteSpace=wrap;connectable=0;overflow=hidden;fillColor=none;top=0;left=0;bottom=0;right=0;pointerEvents=1;" parent="zvUacJSqTQP56tCecb00-1" vertex="1">
                    <mxGeometry width="38" height="40" as="geometry">
                        <mxRectangle width="38" height="40" as="alternateBounds"/>
                    </mxGeometry>
                </mxCell>
                <mxCell id="zvUacJSqTQP56tCecb00-3" value="tag_id&amp;nbsp;&lt;span style=&quot;color: rgb(0, 0, 0);&quot;&gt;UUID NOT NULL&lt;/span&gt;" style="shape=partialRectangle;html=1;whiteSpace=wrap;connectable=0;overflow=hidden;fillColor=none;top=0;left=0;bottom=0;right=0;pointerEvents=1;align=left;" parent="zvUacJSqTQP56tCecb00-1" vertex="1">
                    <mxGeometry x="38" width="202" height="40" as="geometry">
                        <mxRectangle width="202" height="40" as="alternateBounds"/>
                    </mxGeometry>
                </mxCell>
                <mxCell id="zvUacJSqTQP56tCecb00-4" style="shape=partialRectangle;collapsible=0;dropTarget=0;pointerEvents=0;fillColor=none;top=0;left=0;bottom=0;right=0;points=[[0,0.5],[1,0.5]];portConstraint=eastwest;" parent="zvUacJSqTQP56tCecb00-0" vertex="1">
                    <mxGeometry y="70" width="240" height="40" as="geometry"/>
                </mxCell>
                <mxCell id="zvUacJSqTQP56tCecb00-5" value="" style="shape=partialRectangle;html=1;whiteSpace=wrap;connectable=0;overflow=hidden;fillColor=none;top=0;left=0;bottom=0;right=0;pointerEvents=1;" parent="zvUacJSqTQP56tCecb00-4" vertex="1">
                    <mxGeometry width="38" height="40" as="geometry">
                        <mxRectangle width="38" height="40" as="alternateBounds"/>
                    </mxGeometry>
                </mxCell>
                <mxCell id="zvUacJSqTQP56tCecb00-6" value="tag VARCHAR(50) UNIQUE" style="shape=partialRectangle;html=1;whiteSpace=wrap;connectable=0;overflow=hidden;fillColor=none;top=0;left=0;bottom=0;right=0;pointerEvents=1;align=left;" parent="zvUacJSqTQP56tCecb00-4" vertex="1">
                    <mxGeometry x="38" width="202" height="40" as="geometry">
                        <mxRectangle width="202" height="40" as="alternateBounds"/>
                    </mxGeometry>
                </mxCell>
                <mxCell id="AGmr-dSgjA-KCD24eIKx-0" style="shape=partialRectangle;collapsible=0;dropTarget=0;pointerEvents=0;fillColor=none;top=0;left=0;bottom=0;right=0;points=[[0,0.5],[1,0.5]];portConstraint=eastwest;" parent="zvUacJSqTQP56tCecb00-0" vertex="1">
                    <mxGeometry y="110" width="240" height="40" as="geometry"/>
                </mxCell>
                <mxCell id="AGmr-dSgjA-KCD24eIKx-1" style="shape=partialRectangle;html=1;whiteSpace=wrap;connectable=0;overflow=hidden;fillColor=none;top=0;left=0;bottom=0;right=0;pointerEvents=1;" parent="AGmr-dSgjA-KCD24eIKx-0" vertex="1">
                    <mxGeometry width="38" height="40" as="geometry">
                        <mxRectangle width="38" height="40" as="alternateBounds"/>
                    </mxGeometry>
                </mxCell>
                <mxCell id="AGmr-dSgjA-KCD24eIKx-2" value="added&amp;nbsp;&lt;span style=&quot;color: rgb(0, 0, 0);&quot;&gt;TIMESTAMP NOT NULL&lt;/span&gt;" style="shape=partialRectangle;html=1;whiteSpace=wrap;connectable=0;overflow=hidden;fillColor=none;top=0;left=0;bottom=0;right=0;pointerEvents=1;align=left;" parent="AGmr-dSgjA-KCD24eIKx-0" vertex="1">
                    <mxGeometry x="38" width="202" height="40" as="geometry">
                        <mxRectangle width="202" height="40" as="alternateBounds"/>
                    </mxGeometry>
                </mxCell>
                <mxCell id="AGmr-dSgjA-KCD24eIKx-3" style="shape=partialRectangle;collapsible=0;dropTarget=0;pointerEvents=0;fillColor=none;top=0;left=0;bottom=0;right=0;points=[[0,0.5],[1,0.5]];portConstraint=eastwest;" parent="zvUacJSqTQP56tCecb00-0" vertex="1">
                    <mxGeometry y="150" width="240" height="40" as="geometry"/>
                </mxCell>
                <mxCell id="AGmr-dSgjA-KCD24eIKx-4" style="shape=partialRectangle;html=1;whiteSpace=wrap;connectable=0;overflow=hidden;fillColor=none;top=0;left=0;bottom=0;right=0;pointerEvents=1;" parent="AGmr-dSgjA-KCD24eIKx-3" vertex="1">
                    <mxGeometry width="38" height="40" as="geometry">
                        <mxRectangle width="38" height="40" as="alternateBounds"/>
                    </mxGeometry>
                </mxCell>
                <mxCell id="AGmr-dSgjA-KCD24eIKx-5" value="updated&amp;nbsp;&lt;span style=&quot;color: rgb(0, 0, 0);&quot;&gt;TIMESTAMP NOT NULL&lt;/span&gt;" style="shape=partialRectangle;html=1;whiteSpace=wrap;connectable=0;overflow=hidden;fillColor=none;top=0;left=0;bottom=0;right=0;pointerEvents=1;align=left;" parent="AGmr-dSgjA-KCD24eIKx-3" vertex="1">
                    <mxGeometry x="38" width="202" height="40" as="geometry">
                        <mxRectangle width="202" height="40" as="alternateBounds"/>
                    </mxGeometry>
                </mxCell>
                <mxCell id="zvUacJSqTQP56tCecb00-7" value="TAG_WORD" style="shape=table;startSize=30;container=1;collapsible=0;childLayout=tableLayout;" parent="0wuf_ZBurSjKQbY5mlhR-1" vertex="1">
                    <mxGeometry x="770" y="-30" width="240" height="110" as="geometry"/>
                </mxCell>
                <mxCell id="zvUacJSqTQP56tCecb00-8" value="" style="shape=partialRectangle;collapsible=0;dropTarget=0;pointerEvents=0;fillColor=none;top=0;left=0;bottom=0;right=0;points=[[0,0.5],[1,0.5]];portConstraint=eastwest;" parent="zvUacJSqTQP56tCecb00-7" vertex="1">
                    <mxGeometry y="30" width="240" height="40" as="geometry"/>
                </mxCell>
                <mxCell id="zvUacJSqTQP56tCecb00-9" value="PK" style="shape=partialRectangle;html=1;whiteSpace=wrap;connectable=0;overflow=hidden;fillColor=none;top=0;left=0;bottom=0;right=0;pointerEvents=1;" parent="zvUacJSqTQP56tCecb00-8" vertex="1">
                    <mxGeometry width="38" height="40" as="geometry">
                        <mxRectangle width="38" height="40" as="alternateBounds"/>
                    </mxGeometry>
                </mxCell>
                <mxCell id="zvUacJSqTQP56tCecb00-10" value="word_id&amp;nbsp;&lt;span style=&quot;color: rgb(0, 0, 0);&quot;&gt;UUID NOT NULL&lt;/span&gt;" style="shape=partialRectangle;html=1;whiteSpace=wrap;connectable=0;overflow=hidden;fillColor=none;top=0;left=0;bottom=0;right=0;pointerEvents=1;align=left;" parent="zvUacJSqTQP56tCecb00-8" vertex="1">
                    <mxGeometry x="38" width="202" height="40" as="geometry">
                        <mxRectangle width="202" height="40" as="alternateBounds"/>
                    </mxGeometry>
                </mxCell>
                <mxCell id="zvUacJSqTQP56tCecb00-11" style="shape=partialRectangle;collapsible=0;dropTarget=0;pointerEvents=0;fillColor=none;top=0;left=0;bottom=0;right=0;points=[[0,0.5],[1,0.5]];portConstraint=eastwest;" parent="zvUacJSqTQP56tCecb00-7" vertex="1">
                    <mxGeometry y="70" width="240" height="40" as="geometry"/>
                </mxCell>
                <mxCell id="zvUacJSqTQP56tCecb00-12" value="&lt;span&gt;PK&lt;/span&gt;" style="shape=partialRectangle;html=1;whiteSpace=wrap;connectable=0;overflow=hidden;fillColor=none;top=0;left=0;bottom=0;right=0;pointerEvents=1;" parent="zvUacJSqTQP56tCecb00-11" vertex="1">
                    <mxGeometry width="38" height="40" as="geometry">
                        <mxRectangle width="38" height="40" as="alternateBounds"/>
                    </mxGeometry>
                </mxCell>
                <mxCell id="zvUacJSqTQP56tCecb00-13" value="tag_id&amp;nbsp;&lt;span style=&quot;color: rgb(0, 0, 0);&quot;&gt;UUID NOT NULL&lt;/span&gt;" style="shape=partialRectangle;html=1;whiteSpace=wrap;connectable=0;overflow=hidden;fillColor=none;top=0;left=0;bottom=0;right=0;pointerEvents=1;align=left;" parent="zvUacJSqTQP56tCecb00-11" vertex="1">
                    <mxGeometry x="38" width="202" height="40" as="geometry">
                        <mxRectangle width="202" height="40" as="alternateBounds"/>
                    </mxGeometry>
                </mxCell>
                <mxCell id="zvUacJSqTQP56tCecb00-21" style="edgeStyle=orthogonalEdgeStyle;rounded=0;orthogonalLoop=1;jettySize=auto;html=1;entryX=0;entryY=0.5;entryDx=0;entryDy=0;curved=1;endArrow=ERmany;endFill=0;startArrow=ERmany;startFill=0;" parent="0wuf_ZBurSjKQbY5mlhR-1" source="zvUacJSqTQP56tCecb00-11" target="zvUacJSqTQP56tCecb00-1" edge="1">
                    <mxGeometry relative="1" as="geometry"/>
                </mxCell>
                <mxCell id="zvUacJSqTQP56tCecb00-28" style="edgeStyle=orthogonalEdgeStyle;curved=1;rounded=0;orthogonalLoop=1;jettySize=auto;html=1;startArrow=ERmany;startFill=0;endArrow=ERmany;endFill=0;" parent="0wuf_ZBurSjKQbY5mlhR-1" source="zvUacJSqTQP56tCecb00-8" target="83F25MujSL98VKSkX-oy-170" edge="1">
                    <mxGeometry relative="1" as="geometry"/>
                </mxCell>
                <mxCell id="zvUacJSqTQP56tCecb00-29" value="PARTS" style="shape=table;startSize=30;container=1;collapsible=0;childLayout=tableLayout;" parent="0wuf_ZBurSjKQbY5mlhR-1" vertex="1">
                    <mxGeometry x="770" y="180" width="240" height="110" as="geometry"/>
                </mxCell>
                <mxCell id="zvUacJSqTQP56tCecb00-30" value="" style="shape=partialRectangle;collapsible=0;dropTarget=0;pointerEvents=0;fillColor=none;top=0;left=0;bottom=0;right=0;points=[[0,0.5],[1,0.5]];portConstraint=eastwest;" parent="zvUacJSqTQP56tCecb00-29" vertex="1">
                    <mxGeometry y="30" width="240" height="40" as="geometry"/>
                </mxCell>
                <mxCell id="zvUacJSqTQP56tCecb00-31" value="PK" style="shape=partialRectangle;html=1;whiteSpace=wrap;connectable=0;overflow=hidden;fillColor=none;top=0;left=0;bottom=0;right=0;pointerEvents=1;" parent="zvUacJSqTQP56tCecb00-30" vertex="1">
                    <mxGeometry width="38" height="40" as="geometry">
                        <mxRectangle width="38" height="40" as="alternateBounds"/>
                    </mxGeometry>
                </mxCell>
                <mxCell id="zvUacJSqTQP56tCecb00-32" value="word_id&amp;nbsp;&lt;span style=&quot;color: rgb(0, 0, 0);&quot;&gt;UUID NOT NULL&lt;/span&gt;" style="shape=partialRectangle;html=1;whiteSpace=wrap;connectable=0;overflow=hidden;fillColor=none;top=0;left=0;bottom=0;right=0;pointerEvents=1;align=left;" parent="zvUacJSqTQP56tCecb00-30" vertex="1">
                    <mxGeometry x="38" width="202" height="40" as="geometry">
                        <mxRectangle width="202" height="40" as="alternateBounds"/>
                    </mxGeometry>
                </mxCell>
                <mxCell id="zvUacJSqTQP56tCecb00-33" style="shape=partialRectangle;collapsible=0;dropTarget=0;pointerEvents=0;fillColor=none;top=0;left=0;bottom=0;right=0;points=[[0,0.5],[1,0.5]];portConstraint=eastwest;" parent="zvUacJSqTQP56tCecb00-29" vertex="1">
                    <mxGeometry y="70" width="240" height="40" as="geometry"/>
                </mxCell>
                <mxCell id="zvUacJSqTQP56tCecb00-34" value="&lt;span&gt;PK&lt;/span&gt;" style="shape=partialRectangle;html=1;whiteSpace=wrap;connectable=0;overflow=hidden;fillColor=none;top=0;left=0;bottom=0;right=0;pointerEvents=1;" parent="zvUacJSqTQP56tCecb00-33" vertex="1">
                    <mxGeometry width="38" height="40" as="geometry">
                        <mxRectangle width="38" height="40" as="alternateBounds"/>
                    </mxGeometry>
                </mxCell>
                <mxCell id="zvUacJSqTQP56tCecb00-35" value="part_id&amp;nbsp;&lt;span style=&quot;color: rgb(0, 0, 0);&quot;&gt;UUID NOT NULL&lt;/span&gt;" style="shape=partialRectangle;html=1;whiteSpace=wrap;connectable=0;overflow=hidden;fillColor=none;top=0;left=0;bottom=0;right=0;pointerEvents=1;align=left;" parent="zvUacJSqTQP56tCecb00-33" vertex="1">
                    <mxGeometry x="38" width="202" height="40" as="geometry">
                        <mxRectangle width="202" height="40" as="alternateBounds"/>
                    </mxGeometry>
                </mxCell>
                <mxCell id="zvUacJSqTQP56tCecb00-36" style="edgeStyle=orthogonalEdgeStyle;curved=1;rounded=0;orthogonalLoop=1;jettySize=auto;html=1;startArrow=ERmany;startFill=0;endArrow=ERmany;endFill=0;" parent="0wuf_ZBurSjKQbY5mlhR-1" source="zvUacJSqTQP56tCecb00-30" target="83F25MujSL98VKSkX-oy-170" edge="1">
                    <mxGeometry relative="1" as="geometry"/>
                </mxCell>
                <mxCell id="zvUacJSqTQP56tCecb00-37" style="edgeStyle=orthogonalEdgeStyle;curved=1;rounded=0;orthogonalLoop=1;jettySize=auto;html=1;startArrow=ERmany;startFill=0;endArrow=ERmany;endFill=0;" parent="0wuf_ZBurSjKQbY5mlhR-1" source="zvUacJSqTQP56tCecb00-33" target="83F25MujSL98VKSkX-oy-170" edge="1">
                    <mxGeometry relative="1" as="geometry"/>
                </mxCell>
                <mxCell id="3" value="EXPRESSION_CONTEXT" style="shape=table;startSize=30;container=1;collapsible=0;childLayout=tableLayout;" vertex="1" parent="0wuf_ZBurSjKQbY5mlhR-1">
                    <mxGeometry x="660" y="-420" width="240" height="310" as="geometry"/>
                </mxCell>
                <mxCell id="4" value="" style="shape=partialRectangle;collapsible=0;dropTarget=0;pointerEvents=0;fillColor=none;top=0;left=0;bottom=0;right=0;points=[[0,0.5],[1,0.5]];portConstraint=eastwest;" vertex="1" parent="3">
                    <mxGeometry y="30" width="240" height="40" as="geometry"/>
                </mxCell>
                <mxCell id="5" value="&lt;span&gt;PK&lt;/span&gt;" style="shape=partialRectangle;html=1;whiteSpace=wrap;connectable=0;overflow=hidden;fillColor=none;top=0;left=0;bottom=0;right=0;pointerEvents=1;" vertex="1" parent="4">
                    <mxGeometry width="38" height="40" as="geometry">
                        <mxRectangle width="38" height="40" as="alternateBounds"/>
                    </mxGeometry>
                </mxCell>
                <mxCell id="6" value="id&amp;nbsp;&lt;span style=&quot;color: rgb(0, 0, 0);&quot;&gt;UUID NOT NULL&lt;/span&gt;" style="shape=partialRectangle;html=1;whiteSpace=wrap;connectable=0;overflow=hidden;fillColor=none;top=0;left=0;bottom=0;right=0;pointerEvents=1;align=left;" vertex="1" parent="4">
                    <mxGeometry x="38" width="202" height="40" as="geometry">
                        <mxRectangle width="202" height="40" as="alternateBounds"/>
                    </mxGeometry>
                </mxCell>
                <mxCell id="7" style="shape=partialRectangle;collapsible=0;dropTarget=0;pointerEvents=0;fillColor=none;top=0;left=0;bottom=0;right=0;points=[[0,0.5],[1,0.5]];portConstraint=eastwest;" vertex="1" parent="3">
                    <mxGeometry y="70" width="240" height="40" as="geometry"/>
                </mxCell>
                <mxCell id="8" value="FK" style="shape=partialRectangle;html=1;whiteSpace=wrap;connectable=0;overflow=hidden;fillColor=none;top=0;left=0;bottom=0;right=0;pointerEvents=1;" vertex="1" parent="7">
                    <mxGeometry width="38" height="40" as="geometry">
                        <mxRectangle width="38" height="40" as="alternateBounds"/>
                    </mxGeometry>
                </mxCell>
                <mxCell id="9" value="expression_id&amp;nbsp;&lt;span style=&quot;color: rgb(0, 0, 0);&quot;&gt;UUID NOT NULL&lt;/span&gt;" style="shape=partialRectangle;html=1;whiteSpace=wrap;connectable=0;overflow=hidden;fillColor=none;top=0;left=0;bottom=0;right=0;pointerEvents=1;align=left;" vertex="1" parent="7">
                    <mxGeometry x="38" width="202" height="40" as="geometry">
                        <mxRectangle width="202" height="40" as="alternateBounds"/>
                    </mxGeometry>
                </mxCell>
                <mxCell id="10" style="shape=partialRectangle;collapsible=0;dropTarget=0;pointerEvents=0;fillColor=none;top=0;left=0;bottom=0;right=0;points=[[0,0.5],[1,0.5]];portConstraint=eastwest;" vertex="1" parent="3">
                    <mxGeometry y="110" width="240" height="40" as="geometry"/>
                </mxCell>
                <mxCell id="11" style="shape=partialRectangle;html=1;whiteSpace=wrap;connectable=0;overflow=hidden;fillColor=none;top=0;left=0;bottom=0;right=0;pointerEvents=1;" vertex="1" parent="10">
                    <mxGeometry width="38" height="40" as="geometry">
                        <mxRectangle width="38" height="40" as="alternateBounds"/>
                    </mxGeometry>
                </mxCell>
                <mxCell id="12" value="&lt;span style=&quot;color: rgb(0, 0, 0);&quot;&gt;sentence TEXT NOT NULL&lt;/span&gt;" style="shape=partialRectangle;html=1;whiteSpace=wrap;connectable=0;overflow=hidden;fillColor=none;top=0;left=0;bottom=0;right=0;pointerEvents=1;align=left;" vertex="1" parent="10">
                    <mxGeometry x="38" width="202" height="40" as="geometry">
                        <mxRectangle width="202" height="40" as="alternateBounds"/>
                    </mxGeometry>
                </mxCell>
                <mxCell id="13" style="shape=partialRectangle;collapsible=0;dropTarget=0;pointerEvents=0;fillColor=none;top=0;left=0;bottom=0;right=0;points=[[0,0.5],[1,0.5]];portConstraint=eastwest;" vertex="1" parent="3">
                    <mxGeometry y="150" width="240" height="40" as="geometry"/>
                </mxCell>
                <mxCell id="14" style="shape=partialRectangle;html=1;whiteSpace=wrap;connectable=0;overflow=hidden;fillColor=none;top=0;left=0;bottom=0;right=0;pointerEvents=1;" vertex="1" parent="13">
                    <mxGeometry width="38" height="40" as="geometry">
                        <mxRectangle width="38" height="40" as="alternateBounds"/>
                    </mxGeometry>
                </mxCell>
                <mxCell id="15" value="&lt;span style=&quot;color: rgb(0, 0, 0);&quot;&gt;template JSON NOT NULL&lt;/span&gt;" style="shape=partialRectangle;html=1;whiteSpace=wrap;connectable=0;overflow=hidden;fillColor=none;top=0;left=0;bottom=0;right=0;pointerEvents=1;align=left;" vertex="1" parent="13">
                    <mxGeometry x="38" width="202" height="40" as="geometry">
                        <mxRectangle width="202" height="40" as="alternateBounds"/>
                    </mxGeometry>
                </mxCell>
                <mxCell id="16" style="shape=partialRectangle;collapsible=0;dropTarget=0;pointerEvents=0;fillColor=none;top=0;left=0;bottom=0;right=0;points=[[0,0.5],[1,0.5]];portConstraint=eastwest;" vertex="1" parent="3">
                    <mxGeometry y="190" width="240" height="40" as="geometry"/>
                </mxCell>
                <mxCell id="17" style="shape=partialRectangle;html=1;whiteSpace=wrap;connectable=0;overflow=hidden;fillColor=none;top=0;left=0;bottom=0;right=0;pointerEvents=1;" vertex="1" parent="16">
                    <mxGeometry width="38" height="40" as="geometry">
                        <mxRectangle width="38" height="40" as="alternateBounds"/>
                    </mxGeometry>
                </mxCell>
                <mxCell id="18" value="translations&amp;nbsp;&lt;span style=&quot;color: rgb(0, 0, 0);&quot;&gt;JSON NOT NULL&lt;/span&gt;" style="shape=partialRectangle;html=1;whiteSpace=wrap;connectable=0;overflow=hidden;fillColor=none;top=0;left=0;bottom=0;right=0;pointerEvents=1;align=left;" vertex="1" parent="16">
                    <mxGeometry x="38" width="202" height="40" as="geometry">
                        <mxRectangle width="202" height="40" as="alternateBounds"/>
                    </mxGeometry>
                </mxCell>
                <mxCell id="19" style="shape=partialRectangle;collapsible=0;dropTarget=0;pointerEvents=0;fillColor=none;top=0;left=0;bottom=0;right=0;points=[[0,0.5],[1,0.5]];portConstraint=eastwest;" vertex="1" parent="3">
                    <mxGeometry y="230" width="240" height="40" as="geometry"/>
                </mxCell>
                <mxCell id="20" style="shape=partialRectangle;html=1;whiteSpace=wrap;connectable=0;overflow=hidden;fillColor=none;top=0;left=0;bottom=0;right=0;pointerEvents=1;" vertex="1" parent="19">
                    <mxGeometry width="38" height="40" as="geometry">
                        <mxRectangle width="38" height="40" as="alternateBounds"/>
                    </mxGeometry>
                </mxCell>
                <mxCell id="21" value="added&amp;nbsp;&lt;span style=&quot;color: rgb(0, 0, 0);&quot;&gt;TIMESTAMP NOT NULL&lt;/span&gt;" style="shape=partialRectangle;html=1;whiteSpace=wrap;connectable=0;overflow=hidden;fillColor=none;top=0;left=0;bottom=0;right=0;pointerEvents=1;align=left;" vertex="1" parent="19">
                    <mxGeometry x="38" width="202" height="40" as="geometry">
                        <mxRectangle width="202" height="40" as="alternateBounds"/>
                    </mxGeometry>
                </mxCell>
                <mxCell id="22" style="shape=partialRectangle;collapsible=0;dropTarget=0;pointerEvents=0;fillColor=none;top=0;left=0;bottom=0;right=0;points=[[0,0.5],[1,0.5]];portConstraint=eastwest;" vertex="1" parent="3">
                    <mxGeometry y="270" width="240" height="40" as="geometry"/>
                </mxCell>
                <mxCell id="23" style="shape=partialRectangle;html=1;whiteSpace=wrap;connectable=0;overflow=hidden;fillColor=none;top=0;left=0;bottom=0;right=0;pointerEvents=1;" vertex="1" parent="22">
                    <mxGeometry width="38" height="40" as="geometry">
                        <mxRectangle width="38" height="40" as="alternateBounds"/>
                    </mxGeometry>
                </mxCell>
                <mxCell id="24" value="updated&amp;nbsp;&lt;span style=&quot;color: rgb(0, 0, 0);&quot;&gt;TIMESTAMP NOT NULL&lt;/span&gt;" style="shape=partialRectangle;html=1;whiteSpace=wrap;connectable=0;overflow=hidden;fillColor=none;top=0;left=0;bottom=0;right=0;pointerEvents=1;align=left;" vertex="1" parent="22">
                    <mxGeometry x="38" width="202" height="40" as="geometry">
                        <mxRectangle width="202" height="40" as="alternateBounds"/>
                    </mxGeometry>
                </mxCell>
                <mxCell id="25" style="edgeStyle=orthogonalEdgeStyle;curved=1;rounded=0;orthogonalLoop=1;jettySize=auto;html=1;startArrow=ERmany;startFill=0;endArrow=ERmany;endFill=0;" edge="1" parent="0wuf_ZBurSjKQbY5mlhR-1" source="7" target="83F25MujSL98VKSkX-oy-170">
                    <mxGeometry relative="1" as="geometry">
                        <mxPoint x="540" y="-300" as="sourcePoint"/>
                        <mxPoint x="544" y="130" as="targetPoint"/>
                    </mxGeometry>
                </mxCell>
                <mxCell id="26" value="dialogues" style="shape=table;startSize=30;container=1;collapsible=1;childLayout=tableLayout;fixedRows=1;rowLines=0;fontStyle=1;align=center;resizeLast=1;html=1;" vertex="1" parent="0wuf_ZBurSjKQbY5mlhR-1">
                    <mxGeometry x="-1350" y="-110" width="230" height="300" as="geometry"/>
                </mxCell>
                <mxCell id="27" value="" style="shape=tableRow;horizontal=0;startSize=0;swimlaneHead=0;swimlaneBody=0;fillColor=none;collapsible=0;dropTarget=0;points=[[0,0.5],[1,0.5]];portConstraint=eastwest;top=0;left=0;right=0;bottom=1;" vertex="1" parent="26">
                    <mxGeometry y="30" width="230" height="30" as="geometry"/>
                </mxCell>
                <mxCell id="28" value="PK" style="shape=partialRectangle;connectable=0;fillColor=none;top=0;left=0;bottom=0;right=0;fontStyle=1;overflow=hidden;whiteSpace=wrap;html=1;" vertex="1" parent="27">
                    <mxGeometry width="30" height="30" as="geometry">
                        <mxRectangle width="30" height="30" as="alternateBounds"/>
                    </mxGeometry>
                </mxCell>
                <mxCell id="29" value="id&amp;nbsp;&lt;span style=&quot;color: rgb(0, 0, 0); font-weight: 400;&quot;&gt;UUID NOT NULL&lt;/span&gt;" style="shape=partialRectangle;connectable=0;fillColor=none;top=0;left=0;bottom=0;right=0;align=left;spacingLeft=6;fontStyle=5;overflow=hidden;whiteSpace=wrap;html=1;" vertex="1" parent="27">
                    <mxGeometry x="30" width="200" height="30" as="geometry">
                        <mxRectangle width="200" height="30" as="alternateBounds"/>
                    </mxGeometry>
                </mxCell>
                <mxCell id="30" value="" style="shape=tableRow;horizontal=0;startSize=0;swimlaneHead=0;swimlaneBody=0;fillColor=none;collapsible=0;dropTarget=0;points=[[0,0.5],[1,0.5]];portConstraint=eastwest;top=0;left=0;right=0;bottom=0;" vertex="1" parent="26">
                    <mxGeometry y="60" width="230" height="30" as="geometry"/>
                </mxCell>
                <mxCell id="31" value="FK" style="shape=partialRectangle;connectable=0;fillColor=none;top=0;left=0;bottom=0;right=0;editable=1;overflow=hidden;whiteSpace=wrap;html=1;" vertex="1" parent="30">
                    <mxGeometry width="30" height="30" as="geometry">
                        <mxRectangle width="30" height="30" as="alternateBounds"/>
                    </mxGeometry>
                </mxCell>
                <mxCell id="32" value="user_id&amp;nbsp;&lt;span style=&quot;color: rgb(0, 0, 0);&quot;&gt;UUID NOT NULL&lt;/span&gt;" style="shape=partialRectangle;connectable=0;fillColor=none;top=0;left=0;bottom=0;right=0;align=left;spacingLeft=6;overflow=hidden;whiteSpace=wrap;html=1;" vertex="1" parent="30">
                    <mxGeometry x="30" width="200" height="30" as="geometry">
                        <mxRectangle width="200" height="30" as="alternateBounds"/>
                    </mxGeometry>
                </mxCell>
                <mxCell id="33" value="" style="shape=tableRow;horizontal=0;startSize=0;swimlaneHead=0;swimlaneBody=0;fillColor=none;collapsible=0;dropTarget=0;points=[[0,0.5],[1,0.5]];portConstraint=eastwest;top=0;left=0;right=0;bottom=0;" vertex="1" parent="26">
                    <mxGeometry y="90" width="230" height="30" as="geometry"/>
                </mxCell>
                <mxCell id="34" value="" style="shape=partialRectangle;connectable=0;fillColor=none;top=0;left=0;bottom=0;right=0;editable=1;overflow=hidden;whiteSpace=wrap;html=1;" vertex="1" parent="33">
                    <mxGeometry width="30" height="30" as="geometry">
                        <mxRectangle width="30" height="30" as="alternateBounds"/>
                    </mxGeometry>
                </mxCell>
                <mxCell id="35" value="title &lt;span style=&quot;color: rgb(0, 0, 0);&quot;&gt;TEXT NOT NULL&amp;nbsp;&lt;/span&gt;" style="shape=partialRectangle;connectable=0;fillColor=none;top=0;left=0;bottom=0;right=0;align=left;spacingLeft=6;overflow=hidden;whiteSpace=wrap;html=1;" vertex="1" parent="33">
                    <mxGeometry x="30" width="200" height="30" as="geometry">
                        <mxRectangle width="200" height="30" as="alternateBounds"/>
                    </mxGeometry>
                </mxCell>
                <mxCell id="36" value="" style="shape=tableRow;horizontal=0;startSize=0;swimlaneHead=0;swimlaneBody=0;fillColor=none;collapsible=0;dropTarget=0;points=[[0,0.5],[1,0.5]];portConstraint=eastwest;top=0;left=0;right=0;bottom=0;" vertex="1" parent="26">
                    <mxGeometry y="120" width="230" height="30" as="geometry"/>
                </mxCell>
                <mxCell id="37" value="" style="shape=partialRectangle;connectable=0;fillColor=none;top=0;left=0;bottom=0;right=0;editable=1;overflow=hidden;whiteSpace=wrap;html=1;" vertex="1" parent="36">
                    <mxGeometry width="30" height="30" as="geometry">
                        <mxRectangle width="30" height="30" as="alternateBounds"/>
                    </mxGeometry>
                </mxCell>
                <mxCell id="38" value="description&amp;nbsp;&lt;span style=&quot;color: rgb(0, 0, 0);&quot;&gt;TEXT&lt;/span&gt;" style="shape=partialRectangle;connectable=0;fillColor=none;top=0;left=0;bottom=0;right=0;align=left;spacingLeft=6;overflow=hidden;whiteSpace=wrap;html=1;" vertex="1" parent="36">
                    <mxGeometry x="30" width="200" height="30" as="geometry">
                        <mxRectangle width="200" height="30" as="alternateBounds"/>
                    </mxGeometry>
                </mxCell>
                <mxCell id="39" style="shape=tableRow;horizontal=0;startSize=0;swimlaneHead=0;swimlaneBody=0;fillColor=none;collapsible=0;dropTarget=0;points=[[0,0.5],[1,0.5]];portConstraint=eastwest;top=0;left=0;right=0;bottom=0;" vertex="1" parent="26">
                    <mxGeometry y="150" width="230" height="30" as="geometry"/>
                </mxCell>
                <mxCell id="40" style="shape=partialRectangle;connectable=0;fillColor=none;top=0;left=0;bottom=0;right=0;editable=1;overflow=hidden;whiteSpace=wrap;html=1;" vertex="1" parent="39">
                    <mxGeometry width="30" height="30" as="geometry">
                        <mxRectangle width="30" height="30" as="alternateBounds"/>
                    </mxGeometry>
                </mxCell>
                <mxCell id="41" value="settings&amp;nbsp;&lt;span style=&quot;color: rgb(0, 0, 0);&quot;&gt;JSON NOT NULL&lt;/span&gt;" style="shape=partialRectangle;connectable=0;fillColor=none;top=0;left=0;bottom=0;right=0;align=left;spacingLeft=6;overflow=hidden;whiteSpace=wrap;html=1;" vertex="1" parent="39">
                    <mxGeometry x="30" width="200" height="30" as="geometry">
                        <mxRectangle width="200" height="30" as="alternateBounds"/>
                    </mxGeometry>
                </mxCell>
                <mxCell id="42" style="shape=tableRow;horizontal=0;startSize=0;swimlaneHead=0;swimlaneBody=0;fillColor=none;collapsible=0;dropTarget=0;points=[[0,0.5],[1,0.5]];portConstraint=eastwest;top=0;left=0;right=0;bottom=0;" vertex="1" parent="26">
                    <mxGeometry y="180" width="230" height="30" as="geometry"/>
                </mxCell>
                <mxCell id="43" style="shape=partialRectangle;connectable=0;fillColor=none;top=0;left=0;bottom=0;right=0;editable=1;overflow=hidden;whiteSpace=wrap;html=1;" vertex="1" parent="42">
                    <mxGeometry width="30" height="30" as="geometry">
                        <mxRectangle width="30" height="30" as="alternateBounds"/>
                    </mxGeometry>
                </mxCell>
                <mxCell id="44" value="dialogue&amp;nbsp;&lt;span style=&quot;color: rgb(0, 0, 0);&quot;&gt;JSON NOT NULL&lt;/span&gt;" style="shape=partialRectangle;connectable=0;fillColor=none;top=0;left=0;bottom=0;right=0;align=left;spacingLeft=6;overflow=hidden;whiteSpace=wrap;html=1;" vertex="1" parent="42">
                    <mxGeometry x="30" width="200" height="30" as="geometry">
                        <mxRectangle width="200" height="30" as="alternateBounds"/>
                    </mxGeometry>
                </mxCell>
                <mxCell id="45" style="shape=tableRow;horizontal=0;startSize=0;swimlaneHead=0;swimlaneBody=0;fillColor=none;collapsible=0;dropTarget=0;points=[[0,0.5],[1,0.5]];portConstraint=eastwest;top=0;left=0;right=0;bottom=0;" vertex="1" parent="26">
                    <mxGeometry y="210" width="230" height="30" as="geometry"/>
                </mxCell>
                <mxCell id="46" style="shape=partialRectangle;connectable=0;fillColor=none;top=0;left=0;bottom=0;right=0;editable=1;overflow=hidden;whiteSpace=wrap;html=1;" vertex="1" parent="45">
                    <mxGeometry width="30" height="30" as="geometry">
                        <mxRectangle width="30" height="30" as="alternateBounds"/>
                    </mxGeometry>
                </mxCell>
                <mxCell id="47" value="expressions&amp;nbsp;&lt;span style=&quot;color: rgb(0, 0, 0);&quot;&gt;JSON NOT NULL&lt;/span&gt;" style="shape=partialRectangle;connectable=0;fillColor=none;top=0;left=0;bottom=0;right=0;align=left;spacingLeft=6;overflow=hidden;whiteSpace=wrap;html=1;" vertex="1" parent="45">
                    <mxGeometry x="30" width="200" height="30" as="geometry">
                        <mxRectangle width="200" height="30" as="alternateBounds"/>
                    </mxGeometry>
                </mxCell>
                <mxCell id="51" style="shape=tableRow;horizontal=0;startSize=0;swimlaneHead=0;swimlaneBody=0;fillColor=none;collapsible=0;dropTarget=0;points=[[0,0.5],[1,0.5]];portConstraint=eastwest;top=0;left=0;right=0;bottom=0;" vertex="1" parent="26">
                    <mxGeometry y="240" width="230" height="30" as="geometry"/>
                </mxCell>
                <mxCell id="52" style="shape=partialRectangle;connectable=0;fillColor=none;top=0;left=0;bottom=0;right=0;editable=1;overflow=hidden;whiteSpace=wrap;html=1;" vertex="1" parent="51">
                    <mxGeometry width="30" height="30" as="geometry">
                        <mxRectangle width="30" height="30" as="alternateBounds"/>
                    </mxGeometry>
                </mxCell>
                <mxCell id="53" value="&lt;span style=&quot;color: rgb(0, 0, 0);&quot;&gt;added TIMESTAMP NOT NULL&lt;/span&gt;" style="shape=partialRectangle;connectable=0;fillColor=none;top=0;left=0;bottom=0;right=0;align=left;spacingLeft=6;overflow=hidden;whiteSpace=wrap;html=1;" vertex="1" parent="51">
                    <mxGeometry x="30" width="200" height="30" as="geometry">
                        <mxRectangle width="200" height="30" as="alternateBounds"/>
                    </mxGeometry>
                </mxCell>
                <mxCell id="48" style="shape=tableRow;horizontal=0;startSize=0;swimlaneHead=0;swimlaneBody=0;fillColor=none;collapsible=0;dropTarget=0;points=[[0,0.5],[1,0.5]];portConstraint=eastwest;top=0;left=0;right=0;bottom=0;" vertex="1" parent="26">
                    <mxGeometry y="270" width="230" height="30" as="geometry"/>
                </mxCell>
                <mxCell id="49" style="shape=partialRectangle;connectable=0;fillColor=none;top=0;left=0;bottom=0;right=0;editable=1;overflow=hidden;whiteSpace=wrap;html=1;" vertex="1" parent="48">
                    <mxGeometry width="30" height="30" as="geometry">
                        <mxRectangle width="30" height="30" as="alternateBounds"/>
                    </mxGeometry>
                </mxCell>
                <mxCell id="50" value="&lt;span style=&quot;color: rgb(0, 0, 0);&quot;&gt;updated&lt;/span&gt;&lt;span style=&quot;color: rgb(0, 0, 0);&quot;&gt;&amp;nbsp;TIMESTAMP NOT NULL&lt;/span&gt;" style="shape=partialRectangle;connectable=0;fillColor=none;top=0;left=0;bottom=0;right=0;align=left;spacingLeft=6;overflow=hidden;whiteSpace=wrap;html=1;" vertex="1" parent="48">
                    <mxGeometry x="30" width="200" height="30" as="geometry">
                        <mxRectangle width="200" height="30" as="alternateBounds"/>
                    </mxGeometry>
                </mxCell>
                <mxCell id="54" style="edgeStyle=orthogonalEdgeStyle;rounded=0;orthogonalLoop=1;jettySize=auto;html=1;endArrow=ERmany;endFill=0;startArrow=none;startFill=0;curved=1;" edge="1" parent="0wuf_ZBurSjKQbY5mlhR-1" source="83F25MujSL98VKSkX-oy-142" target="30">
                    <mxGeometry relative="1" as="geometry">
                        <mxPoint x="-1050" y="-20" as="sourcePoint"/>
                        <mxPoint x="-830" y="-160" as="targetPoint"/>
                    </mxGeometry>
                </mxCell>
            </root>
        </mxGraphModel>
    </diagram>
    <diagram id="HLyPKuMOvU-hckjn7nNa" name="Classes">
        <mxGraphModel dx="1933" dy="838" grid="1" gridSize="10" guides="1" tooltips="1" connect="1" arrows="1" fold="1" page="1" pageScale="1" pageWidth="827" pageHeight="1169" math="0" shadow="0">
            <root>
                <mxCell id="eQaayQszVjqSZ0Wtq1Ae-0"/>
                <mxCell id="eQaayQszVjqSZ0Wtq1Ae-1" parent="eQaayQszVjqSZ0Wtq1Ae-0"/>
                <mxCell id="Ej1XOfKjQ-ItL6idBB-o-0" value="User" style="swimlane;fontStyle=1;align=center;verticalAlign=top;childLayout=stackLayout;horizontal=1;startSize=26;horizontalStack=0;resizeParent=1;resizeParentMax=0;resizeLast=0;collapsible=1;marginBottom=0;" parent="eQaayQszVjqSZ0Wtq1Ae-1" vertex="1">
                    <mxGeometry x="120" y="120" width="160" height="86" as="geometry"/>
                </mxCell>
                <mxCell id="Ej1XOfKjQ-ItL6idBB-o-1" value="+ field: type" style="text;strokeColor=none;fillColor=none;align=left;verticalAlign=top;spacingLeft=4;spacingRight=4;overflow=hidden;rotatable=0;points=[[0,0.5],[1,0.5]];portConstraint=eastwest;" parent="Ej1XOfKjQ-ItL6idBB-o-0" vertex="1">
                    <mxGeometry y="26" width="160" height="26" as="geometry"/>
                </mxCell>
                <mxCell id="Ej1XOfKjQ-ItL6idBB-o-2" value="" style="line;strokeWidth=1;fillColor=none;align=left;verticalAlign=middle;spacingTop=-1;spacingLeft=3;spacingRight=3;rotatable=0;labelPosition=right;points=[];portConstraint=eastwest;" parent="Ej1XOfKjQ-ItL6idBB-o-0" vertex="1">
                    <mxGeometry y="52" width="160" height="8" as="geometry"/>
                </mxCell>
                <mxCell id="Ej1XOfKjQ-ItL6idBB-o-3" value="+ method(type): type" style="text;strokeColor=none;fillColor=none;align=left;verticalAlign=top;spacingLeft=4;spacingRight=4;overflow=hidden;rotatable=0;points=[[0,0.5],[1,0.5]];portConstraint=eastwest;" parent="Ej1XOfKjQ-ItL6idBB-o-0" vertex="1">
                    <mxGeometry y="60" width="160" height="26" as="geometry"/>
                </mxCell>
                <mxCell id="Ej1XOfKjQ-ItL6idBB-o-8" value="UserServise" style="swimlane;fontStyle=1;align=center;verticalAlign=top;childLayout=stackLayout;horizontal=1;startSize=26;horizontalStack=0;resizeParent=1;resizeParentMax=0;resizeLast=0;collapsible=1;marginBottom=0;" parent="eQaayQszVjqSZ0Wtq1Ae-1" vertex="1">
                    <mxGeometry x="240" y="360" width="160" height="86" as="geometry"/>
                </mxCell>
                <mxCell id="Ej1XOfKjQ-ItL6idBB-o-9" value="+ field: type" style="text;strokeColor=none;fillColor=none;align=left;verticalAlign=top;spacingLeft=4;spacingRight=4;overflow=hidden;rotatable=0;points=[[0,0.5],[1,0.5]];portConstraint=eastwest;" parent="Ej1XOfKjQ-ItL6idBB-o-8" vertex="1">
                    <mxGeometry y="26" width="160" height="26" as="geometry"/>
                </mxCell>
                <mxCell id="Ej1XOfKjQ-ItL6idBB-o-10" value="" style="line;strokeWidth=1;fillColor=none;align=left;verticalAlign=middle;spacingTop=-1;spacingLeft=3;spacingRight=3;rotatable=0;labelPosition=right;points=[];portConstraint=eastwest;" parent="Ej1XOfKjQ-ItL6idBB-o-8" vertex="1">
                    <mxGeometry y="52" width="160" height="8" as="geometry"/>
                </mxCell>
                <mxCell id="Ej1XOfKjQ-ItL6idBB-o-11" value="+ method(type): type" style="text;strokeColor=none;fillColor=none;align=left;verticalAlign=top;spacingLeft=4;spacingRight=4;overflow=hidden;rotatable=0;points=[[0,0.5],[1,0.5]];portConstraint=eastwest;" parent="Ej1XOfKjQ-ItL6idBB-o-8" vertex="1">
                    <mxGeometry y="60" width="160" height="26" as="geometry"/>
                </mxCell>
                <mxCell id="Ej1XOfKjQ-ItL6idBB-o-12" value="" style="endArrow=open;html=1;endSize=12;startArrow=diamondThin;startSize=14;startFill=1;edgeStyle=orthogonalEdgeStyle;align=left;verticalAlign=bottom;rounded=0;" parent="eQaayQszVjqSZ0Wtq1Ae-1" source="Ej1XOfKjQ-ItL6idBB-o-8" target="Ej1XOfKjQ-ItL6idBB-o-0" edge="1">
                    <mxGeometry x="-1" y="3" relative="1" as="geometry">
                        <mxPoint x="330" y="470" as="sourcePoint"/>
                        <mxPoint x="490" y="470" as="targetPoint"/>
                    </mxGeometry>
                </mxCell>
                <mxCell id="Ej1XOfKjQ-ItL6idBB-o-13" value="" style="endArrow=open;html=1;endSize=12;startArrow=diamondThin;startSize=14;startFill=1;edgeStyle=orthogonalEdgeStyle;align=left;verticalAlign=bottom;rounded=0;" parent="eQaayQszVjqSZ0Wtq1Ae-1" source="Ej1XOfKjQ-ItL6idBB-o-8" target="Ej1XOfKjQ-ItL6idBB-o-14" edge="1">
                    <mxGeometry x="-1" y="3" relative="1" as="geometry">
                        <mxPoint x="650" y="414" as="sourcePoint"/>
                        <mxPoint x="440" y="206" as="targetPoint"/>
                    </mxGeometry>
                </mxCell>
                <mxCell id="Ej1XOfKjQ-ItL6idBB-o-14" value="Expressions" style="swimlane;fontStyle=1;align=center;verticalAlign=top;childLayout=stackLayout;horizontal=1;startSize=26;horizontalStack=0;resizeParent=1;resizeParentMax=0;resizeLast=0;collapsible=1;marginBottom=0;" parent="eQaayQszVjqSZ0Wtq1Ae-1" vertex="1">
                    <mxGeometry x="370" y="120" width="160" height="86" as="geometry"/>
                </mxCell>
                <mxCell id="Ej1XOfKjQ-ItL6idBB-o-15" value="+ field: type" style="text;strokeColor=none;fillColor=none;align=left;verticalAlign=top;spacingLeft=4;spacingRight=4;overflow=hidden;rotatable=0;points=[[0,0.5],[1,0.5]];portConstraint=eastwest;" parent="Ej1XOfKjQ-ItL6idBB-o-14" vertex="1">
                    <mxGeometry y="26" width="160" height="26" as="geometry"/>
                </mxCell>
                <mxCell id="Ej1XOfKjQ-ItL6idBB-o-16" value="" style="line;strokeWidth=1;fillColor=none;align=left;verticalAlign=middle;spacingTop=-1;spacingLeft=3;spacingRight=3;rotatable=0;labelPosition=right;points=[];portConstraint=eastwest;" parent="Ej1XOfKjQ-ItL6idBB-o-14" vertex="1">
                    <mxGeometry y="52" width="160" height="8" as="geometry"/>
                </mxCell>
                <mxCell id="Ej1XOfKjQ-ItL6idBB-o-17" value="+ method(type): type" style="text;strokeColor=none;fillColor=none;align=left;verticalAlign=top;spacingLeft=4;spacingRight=4;overflow=hidden;rotatable=0;points=[[0,0.5],[1,0.5]];portConstraint=eastwest;" parent="Ej1XOfKjQ-ItL6idBB-o-14" vertex="1">
                    <mxGeometry y="60" width="160" height="26" as="geometry"/>
                </mxCell>
                <mxCell id="Ej1XOfKjQ-ItL6idBB-o-18" value="Hasher" style="swimlane;fontStyle=1;align=center;verticalAlign=top;childLayout=stackLayout;horizontal=1;startSize=26;horizontalStack=0;resizeParent=1;resizeParentMax=0;resizeLast=0;collapsible=1;marginBottom=0;" parent="eQaayQszVjqSZ0Wtq1Ae-1" vertex="1">
                    <mxGeometry x="-80" y="230" width="160" height="86" as="geometry"/>
                </mxCell>
                <mxCell id="Ej1XOfKjQ-ItL6idBB-o-19" value="+ field: type" style="text;strokeColor=none;fillColor=none;align=left;verticalAlign=top;spacingLeft=4;spacingRight=4;overflow=hidden;rotatable=0;points=[[0,0.5],[1,0.5]];portConstraint=eastwest;" parent="Ej1XOfKjQ-ItL6idBB-o-18" vertex="1">
                    <mxGeometry y="26" width="160" height="26" as="geometry"/>
                </mxCell>
                <mxCell id="Ej1XOfKjQ-ItL6idBB-o-20" value="" style="line;strokeWidth=1;fillColor=none;align=left;verticalAlign=middle;spacingTop=-1;spacingLeft=3;spacingRight=3;rotatable=0;labelPosition=right;points=[];portConstraint=eastwest;" parent="Ej1XOfKjQ-ItL6idBB-o-18" vertex="1">
                    <mxGeometry y="52" width="160" height="8" as="geometry"/>
                </mxCell>
                <mxCell id="Ej1XOfKjQ-ItL6idBB-o-21" value="+ method(type): type" style="text;strokeColor=none;fillColor=none;align=left;verticalAlign=top;spacingLeft=4;spacingRight=4;overflow=hidden;rotatable=0;points=[[0,0.5],[1,0.5]];portConstraint=eastwest;" parent="Ej1XOfKjQ-ItL6idBB-o-18" vertex="1">
                    <mxGeometry y="60" width="160" height="26" as="geometry"/>
                </mxCell>
                <mxCell id="Ej1XOfKjQ-ItL6idBB-o-22" value="" style="endArrow=open;html=1;endSize=12;startArrow=diamondThin;startSize=14;startFill=0;edgeStyle=orthogonalEdgeStyle;rounded=0;" parent="eQaayQszVjqSZ0Wtq1Ae-1" source="Ej1XOfKjQ-ItL6idBB-o-8" target="Ej1XOfKjQ-ItL6idBB-o-18" edge="1">
                    <mxGeometry relative="1" as="geometry">
                        <mxPoint x="330" y="470" as="sourcePoint"/>
                        <mxPoint x="490" y="470" as="targetPoint"/>
                    </mxGeometry>
                </mxCell>
            </root>
        </mxGraphModel>
    </diagram>
    <diagram id="bvBihjE6hu3l_hjyixU4" name="usecases">
        <mxGraphModel dx="2056" dy="2100" grid="1" gridSize="10" guides="1" tooltips="1" connect="1" arrows="1" fold="1" page="1" pageScale="1" pageWidth="827" pageHeight="1169" math="0" shadow="0">
            <root>
                <mxCell id="HbEu6BMfXqlIxO53YDtJ-0"/>
                <mxCell id="HbEu6BMfXqlIxO53YDtJ-1" parent="HbEu6BMfXqlIxO53YDtJ-0"/>
                <mxCell id="HbEu6BMfXqlIxO53YDtJ-2" value="USER" style="shape=umlActor;verticalLabelPosition=bottom;verticalAlign=top;html=1;outlineConnect=0;" parent="HbEu6BMfXqlIxO53YDtJ-1" vertex="1">
                    <mxGeometry x="360" y="320" width="30" height="60" as="geometry"/>
                </mxCell>
                <mxCell id="HbEu6BMfXqlIxO53YDtJ-3" value="Get access" style="ellipse;whiteSpace=wrap;html=1;" parent="HbEu6BMfXqlIxO53YDtJ-1" vertex="1">
                    <mxGeometry x="322.5" y="220" width="105" height="60" as="geometry"/>
                </mxCell>
                <mxCell id="HbEu6BMfXqlIxO53YDtJ-4" value="sign-on" style="ellipse;whiteSpace=wrap;html=1;" parent="HbEu6BMfXqlIxO53YDtJ-1" vertex="1">
                    <mxGeometry x="240" y="140" width="60" height="30" as="geometry"/>
                </mxCell>
                <mxCell id="HbEu6BMfXqlIxO53YDtJ-5" value="login" style="ellipse;whiteSpace=wrap;html=1;" parent="HbEu6BMfXqlIxO53YDtJ-1" vertex="1">
                    <mxGeometry x="290" y="100" width="52.5" height="30" as="geometry"/>
                </mxCell>
                <mxCell id="HbEu6BMfXqlIxO53YDtJ-6" value="logout" style="ellipse;whiteSpace=wrap;html=1;" parent="HbEu6BMfXqlIxO53YDtJ-1" vertex="1">
                    <mxGeometry x="340" y="70" width="62.5" height="30" as="geometry"/>
                </mxCell>
                <mxCell id="HbEu6BMfXqlIxO53YDtJ-7" value="change psw" style="ellipse;whiteSpace=wrap;html=1;" parent="HbEu6BMfXqlIxO53YDtJ-1" vertex="1">
                    <mxGeometry x="400" y="100" width="60" height="30" as="geometry"/>
                </mxCell>
                <mxCell id="HbEu6BMfXqlIxO53YDtJ-8" value="forgot psw" style="ellipse;whiteSpace=wrap;html=1;" parent="HbEu6BMfXqlIxO53YDtJ-1" vertex="1">
                    <mxGeometry x="440" y="140" width="50" height="30" as="geometry"/>
                </mxCell>
                <mxCell id="HbEu6BMfXqlIxO53YDtJ-10" value="" style="endArrow=classic;html=1;rounded=0;exitX=0.372;exitY=0.028;exitDx=0;exitDy=0;exitPerimeter=0;" parent="HbEu6BMfXqlIxO53YDtJ-1" source="HbEu6BMfXqlIxO53YDtJ-3" target="HbEu6BMfXqlIxO53YDtJ-4" edge="1">
                    <mxGeometry width="50" height="50" relative="1" as="geometry">
                        <mxPoint x="380" y="250" as="sourcePoint"/>
                        <mxPoint x="430" y="200" as="targetPoint"/>
                    </mxGeometry>
                </mxCell>
                <mxCell id="HbEu6BMfXqlIxO53YDtJ-11" value="" style="endArrow=classic;html=1;rounded=0;" parent="HbEu6BMfXqlIxO53YDtJ-1" source="HbEu6BMfXqlIxO53YDtJ-3" target="HbEu6BMfXqlIxO53YDtJ-5" edge="1">
                    <mxGeometry width="50" height="50" relative="1" as="geometry">
                        <mxPoint x="380" y="250" as="sourcePoint"/>
                        <mxPoint x="430" y="200" as="targetPoint"/>
                    </mxGeometry>
                </mxCell>
                <mxCell id="HbEu6BMfXqlIxO53YDtJ-12" value="" style="endArrow=classic;html=1;rounded=0;" parent="HbEu6BMfXqlIxO53YDtJ-1" source="HbEu6BMfXqlIxO53YDtJ-3" target="HbEu6BMfXqlIxO53YDtJ-6" edge="1">
                    <mxGeometry width="50" height="50" relative="1" as="geometry">
                        <mxPoint x="380" y="250" as="sourcePoint"/>
                        <mxPoint x="430" y="200" as="targetPoint"/>
                    </mxGeometry>
                </mxCell>
                <mxCell id="HbEu6BMfXqlIxO53YDtJ-13" value="" style="endArrow=classic;html=1;rounded=0;" parent="HbEu6BMfXqlIxO53YDtJ-1" source="HbEu6BMfXqlIxO53YDtJ-3" target="HbEu6BMfXqlIxO53YDtJ-7" edge="1">
                    <mxGeometry width="50" height="50" relative="1" as="geometry">
                        <mxPoint x="380" y="250" as="sourcePoint"/>
                        <mxPoint x="430" y="200" as="targetPoint"/>
                    </mxGeometry>
                </mxCell>
                <mxCell id="HbEu6BMfXqlIxO53YDtJ-14" value="" style="endArrow=classic;html=1;rounded=0;exitX=0.741;exitY=0.079;exitDx=0;exitDy=0;exitPerimeter=0;" parent="HbEu6BMfXqlIxO53YDtJ-1" source="HbEu6BMfXqlIxO53YDtJ-3" target="HbEu6BMfXqlIxO53YDtJ-8" edge="1">
                    <mxGeometry width="50" height="50" relative="1" as="geometry">
                        <mxPoint x="400" y="230" as="sourcePoint"/>
                        <mxPoint x="430" y="200" as="targetPoint"/>
                    </mxGeometry>
                </mxCell>
                <mxCell id="RgrgqbfKQqXPOuXKbcoe-16" value="" style="endArrow=classic;html=1;rounded=0;fontSize=4;" parent="HbEu6BMfXqlIxO53YDtJ-1" source="HbEu6BMfXqlIxO53YDtJ-2" target="HbEu6BMfXqlIxO53YDtJ-3" edge="1">
                    <mxGeometry width="50" height="50" relative="1" as="geometry">
                        <mxPoint x="410" y="260" as="sourcePoint"/>
                        <mxPoint x="460" y="210" as="targetPoint"/>
                    </mxGeometry>
                </mxCell>
                <mxCell id="RgrgqbfKQqXPOuXKbcoe-18" value="" style="endArrow=classic;html=1;rounded=0;fontSize=7;" parent="HbEu6BMfXqlIxO53YDtJ-1" source="HbEu6BMfXqlIxO53YDtJ-4" edge="1">
                    <mxGeometry width="50" height="50" relative="1" as="geometry">
                        <mxPoint x="110" y="180" as="sourcePoint"/>
                        <mxPoint x="-40" y="50" as="targetPoint"/>
                    </mxGeometry>
                </mxCell>
                <mxCell id="RgrgqbfKQqXPOuXKbcoe-19" value="" style="group;fontSize=11;" parent="HbEu6BMfXqlIxO53YDtJ-1" vertex="1" connectable="0">
                    <mxGeometry x="-330" y="-80" width="340" height="170" as="geometry"/>
                </mxCell>
                <mxCell id="RgrgqbfKQqXPOuXKbcoe-20" value="" style="shape=umlLifeline;participant=umlActor;perimeter=lifelinePerimeter;whiteSpace=wrap;html=1;container=1;collapsible=0;recursiveResize=0;verticalAlign=top;spacingTop=36;outlineConnect=0;" parent="RgrgqbfKQqXPOuXKbcoe-19" vertex="1">
                    <mxGeometry x="24.878048780487802" width="14.468085106382976" height="170" as="geometry"/>
                </mxCell>
                <mxCell id="RgrgqbfKQqXPOuXKbcoe-21" value="&lt;font style=&quot;font-size: 7px&quot;&gt;controller&lt;/font&gt;" style="shape=umlLifeline;perimeter=lifelinePerimeter;whiteSpace=wrap;html=1;container=1;collapsible=0;recursiveResize=0;outlineConnect=0;size=20;" parent="RgrgqbfKQqXPOuXKbcoe-19" vertex="1">
                    <mxGeometry x="86.80851063829786" width="72.34042553191489" height="170" as="geometry"/>
                </mxCell>
                <mxCell id="RgrgqbfKQqXPOuXKbcoe-22" value="" style="html=1;points=[];perimeter=orthogonalPerimeter;" parent="RgrgqbfKQqXPOuXKbcoe-21" vertex="1">
                    <mxGeometry x="32.5531914893617" y="45.33333333333333" width="7.23404255319149" height="119" as="geometry"/>
                </mxCell>
                <mxCell id="RgrgqbfKQqXPOuXKbcoe-23" value="&lt;font style=&quot;font-size: 7px&quot;&gt;validate form&lt;/font&gt;" style="edgeStyle=orthogonalEdgeStyle;html=1;align=left;spacingLeft=2;endArrow=block;rounded=0;entryX=1;entryY=0;" parent="RgrgqbfKQqXPOuXKbcoe-21" edge="1">
                    <mxGeometry relative="1" as="geometry">
                        <mxPoint x="32.5531914893617" y="51" as="sourcePoint"/>
                        <Array as="points">
                            <mxPoint x="61.489361702127674" y="51"/>
                            <mxPoint x="61.489361702127674" y="62.33333333333333"/>
                        </Array>
                        <mxPoint x="36.170212765957444" y="62.33333333333333" as="targetPoint"/>
                    </mxGeometry>
                </mxCell>
                <mxCell id="RgrgqbfKQqXPOuXKbcoe-24" value="&lt;font style=&quot;font-size: 7px&quot;&gt;add user to session&lt;/font&gt;" style="edgeStyle=orthogonalEdgeStyle;html=1;align=left;spacingLeft=2;endArrow=block;rounded=0;entryX=1;entryY=0;" parent="RgrgqbfKQqXPOuXKbcoe-21" edge="1">
                    <mxGeometry relative="1" as="geometry">
                        <mxPoint x="36.170212765957444" y="124.66666666666666" as="sourcePoint"/>
                        <Array as="points">
                            <mxPoint x="65.1063829787234" y="124.66666666666666"/>
                            <mxPoint x="65.1063829787234" y="136"/>
                        </Array>
                        <mxPoint x="39.787234042553195" y="136" as="targetPoint"/>
                    </mxGeometry>
                </mxCell>
                <mxCell id="RgrgqbfKQqXPOuXKbcoe-25" value="&lt;font style=&quot;font-size: 7px&quot;&gt;userServise&lt;/font&gt;" style="shape=umlLifeline;perimeter=lifelinePerimeter;whiteSpace=wrap;html=1;container=1;collapsible=0;recursiveResize=0;outlineConnect=0;size=20;" parent="RgrgqbfKQqXPOuXKbcoe-19" vertex="1">
                    <mxGeometry x="209.7872340425532" width="72.34042553191489" height="170" as="geometry"/>
                </mxCell>
                <mxCell id="RgrgqbfKQqXPOuXKbcoe-26" value="" style="html=1;points=[];perimeter=orthogonalPerimeter;" parent="RgrgqbfKQqXPOuXKbcoe-25" vertex="1">
                    <mxGeometry x="32.5531914893617" y="73.66666666666666" width="7.23404255319149" height="45.33333333333333" as="geometry"/>
                </mxCell>
                <mxCell id="RgrgqbfKQqXPOuXKbcoe-27" value="&lt;font style=&quot;font-size: 7px&quot;&gt;Credentioals&lt;/font&gt;" style="html=1;verticalAlign=bottom;endArrow=block;entryX=0;entryY=0;rounded=0;" parent="RgrgqbfKQqXPOuXKbcoe-19" source="RgrgqbfKQqXPOuXKbcoe-20" target="RgrgqbfKQqXPOuXKbcoe-22" edge="1">
                    <mxGeometry relative="1" as="geometry">
                        <mxPoint x="72.34042553191489" y="45.33333333333333" as="sourcePoint"/>
                    </mxGeometry>
                </mxCell>
                <mxCell id="RgrgqbfKQqXPOuXKbcoe-28" value="&lt;font style=&quot;font-size: 7px&quot;&gt;redirect to user page&lt;/font&gt;" style="html=1;verticalAlign=bottom;endArrow=open;dashed=1;endSize=8;exitX=0;exitY=0.95;rounded=0;" parent="RgrgqbfKQqXPOuXKbcoe-19" source="RgrgqbfKQqXPOuXKbcoe-22" target="RgrgqbfKQqXPOuXKbcoe-20" edge="1">
                    <mxGeometry relative="1" as="geometry">
                        <mxPoint x="72.34042553191489" y="88.39999999999998" as="targetPoint"/>
                    </mxGeometry>
                </mxCell>
                <mxCell id="RgrgqbfKQqXPOuXKbcoe-29" value="&lt;font style=&quot;font-size: 7px&quot;&gt;creds&lt;/font&gt;" style="html=1;verticalAlign=bottom;endArrow=block;entryX=0;entryY=0;rounded=0;" parent="RgrgqbfKQqXPOuXKbcoe-19" source="RgrgqbfKQqXPOuXKbcoe-22" target="RgrgqbfKQqXPOuXKbcoe-26" edge="1">
                    <mxGeometry relative="1" as="geometry">
                        <mxPoint x="227.14893617021275" y="68" as="sourcePoint"/>
                    </mxGeometry>
                </mxCell>
                <mxCell id="RgrgqbfKQqXPOuXKbcoe-30" value="&lt;font style=&quot;font-size: 7px&quot;&gt;success&lt;/font&gt;" style="html=1;verticalAlign=bottom;endArrow=open;dashed=1;endSize=8;exitX=0;exitY=0.95;rounded=0;" parent="RgrgqbfKQqXPOuXKbcoe-19" source="RgrgqbfKQqXPOuXKbcoe-26" target="RgrgqbfKQqXPOuXKbcoe-21" edge="1">
                    <mxGeometry relative="1" as="geometry">
                        <mxPoint x="227.14893617021275" y="111.06666666666666" as="targetPoint"/>
                    </mxGeometry>
                </mxCell>
                <mxCell id="RgrgqbfKQqXPOuXKbcoe-31" value="" style="shape=cylinder3;whiteSpace=wrap;html=1;boundedLbl=1;backgroundOutline=1;size=15;" parent="RgrgqbfKQqXPOuXKbcoe-19" vertex="1">
                    <mxGeometry x="296.59574468085106" y="73.66666666666666" width="43.40425531914893" height="45.33333333333333" as="geometry"/>
                </mxCell>
                <mxCell id="RgrgqbfKQqXPOuXKbcoe-32" style="edgeStyle=orthogonalEdgeStyle;rounded=0;orthogonalLoop=1;jettySize=auto;html=1;" parent="RgrgqbfKQqXPOuXKbcoe-19" source="RgrgqbfKQqXPOuXKbcoe-26" target="RgrgqbfKQqXPOuXKbcoe-31" edge="1">
                    <mxGeometry relative="1" as="geometry"/>
                </mxCell>
                <mxCell id="RgrgqbfKQqXPOuXKbcoe-33" value="&lt;font style=&quot;font-size: 7px&quot;&gt;write user&lt;/font&gt;" style="text;html=1;align=center;verticalAlign=middle;resizable=0;points=[];autosize=1;strokeColor=none;fillColor=none;" parent="RgrgqbfKQqXPOuXKbcoe-19" vertex="1">
                    <mxGeometry x="250.00012973533987" y="75" width="50" height="20" as="geometry"/>
                </mxCell>
                <mxCell id="RgrgqbfKQqXPOuXKbcoe-34" value="&lt;font style=&quot;font-size: 7px&quot;&gt;sign-on&lt;/font&gt;" style="text;html=1;align=center;verticalAlign=middle;resizable=0;points=[];autosize=1;strokeColor=none;fillColor=none;" parent="RgrgqbfKQqXPOuXKbcoe-19" vertex="1">
                    <mxGeometry x="62.19547483134405" y="45.33333333333333" width="40" height="20" as="geometry"/>
                </mxCell>
                <mxCell id="RgrgqbfKQqXPOuXKbcoe-49" value="&lt;font style=&quot;font-size: 12px&quot;&gt;M&lt;/font&gt;&lt;font style=&quot;font-size: 12px&quot;&gt;anage expressions&lt;/font&gt;" style="ellipse;whiteSpace=wrap;html=1;fontSize=7;" parent="HbEu6BMfXqlIxO53YDtJ-1" vertex="1">
                    <mxGeometry x="150" y="290" width="120" height="70" as="geometry"/>
                </mxCell>
                <mxCell id="RgrgqbfKQqXPOuXKbcoe-50" value="Add" style="ellipse;whiteSpace=wrap;html=1;fontSize=12;" parent="HbEu6BMfXqlIxO53YDtJ-1" vertex="1">
                    <mxGeometry x="60" y="300" width="80" height="20" as="geometry"/>
                </mxCell>
                <mxCell id="RgrgqbfKQqXPOuXKbcoe-51" value="Search" style="ellipse;whiteSpace=wrap;html=1;fontSize=12;" parent="HbEu6BMfXqlIxO53YDtJ-1" vertex="1">
                    <mxGeometry x="100" y="260" width="70" height="30" as="geometry"/>
                </mxCell>
                <mxCell id="RgrgqbfKQqXPOuXKbcoe-52" value="See" style="ellipse;whiteSpace=wrap;html=1;fontSize=12;" parent="HbEu6BMfXqlIxO53YDtJ-1" vertex="1">
                    <mxGeometry x="170" y="250" width="80" height="30" as="geometry"/>
                </mxCell>
                <mxCell id="RgrgqbfKQqXPOuXKbcoe-53" value="Change status&lt;br&gt;active/pasive" style="ellipse;whiteSpace=wrap;html=1;fontSize=12;" parent="HbEu6BMfXqlIxO53YDtJ-1" vertex="1">
                    <mxGeometry x="80" y="380" width="90" height="50" as="geometry"/>
                </mxCell>
                <mxCell id="RgrgqbfKQqXPOuXKbcoe-54" value="Delete" style="ellipse;whiteSpace=wrap;html=1;fontSize=12;" parent="HbEu6BMfXqlIxO53YDtJ-1" vertex="1">
                    <mxGeometry x="180" y="380" width="60" height="30" as="geometry"/>
                </mxCell>
                <mxCell id="RgrgqbfKQqXPOuXKbcoe-55" value="Edit" style="ellipse;whiteSpace=wrap;html=1;fontSize=12;" parent="HbEu6BMfXqlIxO53YDtJ-1" vertex="1">
                    <mxGeometry x="65" y="335" width="70" height="30" as="geometry"/>
                </mxCell>
                <mxCell id="POaNXg2ljozko1DDRyKd-0" value="exercices" style="ellipse;whiteSpace=wrap;html=1;" parent="HbEu6BMfXqlIxO53YDtJ-1" vertex="1">
                    <mxGeometry x="490" y="290" width="120" height="70" as="geometry"/>
                </mxCell>
                <mxCell id="POaNXg2ljozko1DDRyKd-1" value="expressions of the day" style="ellipse;whiteSpace=wrap;html=1;" parent="HbEu6BMfXqlIxO53YDtJ-1" vertex="1">
                    <mxGeometry x="640" y="200" width="120" height="80" as="geometry"/>
                </mxCell>
                <mxCell id="POaNXg2ljozko1DDRyKd-2" value="cards" style="ellipse;whiteSpace=wrap;html=1;" parent="HbEu6BMfXqlIxO53YDtJ-1" vertex="1">
                    <mxGeometry x="710" y="77.5" width="130" height="75" as="geometry"/>
                </mxCell>
                <mxCell id="POaNXg2ljozko1DDRyKd-4" value="day test" style="ellipse;whiteSpace=wrap;html=1;" parent="HbEu6BMfXqlIxO53YDtJ-1" vertex="1">
                    <mxGeometry x="810" y="200" width="120" height="80" as="geometry"/>
                </mxCell>
                <mxCell id="363Yuj2VyFL4CdkngFno-0" value="" style="endArrow=classic;html=1;rounded=0;" parent="HbEu6BMfXqlIxO53YDtJ-1" source="HbEu6BMfXqlIxO53YDtJ-2" target="POaNXg2ljozko1DDRyKd-0" edge="1">
                    <mxGeometry width="50" height="50" relative="1" as="geometry">
                        <mxPoint x="560" y="290" as="sourcePoint"/>
                        <mxPoint x="610" y="240" as="targetPoint"/>
                    </mxGeometry>
                </mxCell>
                <mxCell id="363Yuj2VyFL4CdkngFno-1" value="" style="endArrow=classic;html=1;rounded=0;" parent="HbEu6BMfXqlIxO53YDtJ-1" source="HbEu6BMfXqlIxO53YDtJ-2" target="RgrgqbfKQqXPOuXKbcoe-49" edge="1">
                    <mxGeometry width="50" height="50" relative="1" as="geometry">
                        <mxPoint x="560" y="290" as="sourcePoint"/>
                        <mxPoint x="610" y="240" as="targetPoint"/>
                    </mxGeometry>
                </mxCell>
                <mxCell id="363Yuj2VyFL4CdkngFno-2" value="" style="endArrow=classic;html=1;rounded=0;" parent="HbEu6BMfXqlIxO53YDtJ-1" source="POaNXg2ljozko1DDRyKd-0" target="POaNXg2ljozko1DDRyKd-1" edge="1">
                    <mxGeometry width="50" height="50" relative="1" as="geometry">
                        <mxPoint x="660" y="240" as="sourcePoint"/>
                        <mxPoint x="710" y="190" as="targetPoint"/>
                    </mxGeometry>
                </mxCell>
                <mxCell id="363Yuj2VyFL4CdkngFno-3" value="" style="endArrow=classic;html=1;rounded=0;" parent="HbEu6BMfXqlIxO53YDtJ-1" source="POaNXg2ljozko1DDRyKd-1" target="POaNXg2ljozko1DDRyKd-2" edge="1">
                    <mxGeometry width="50" height="50" relative="1" as="geometry">
                        <mxPoint x="660" y="240" as="sourcePoint"/>
                        <mxPoint x="710" y="190" as="targetPoint"/>
                    </mxGeometry>
                </mxCell>
                <mxCell id="363Yuj2VyFL4CdkngFno-4" value="" style="endArrow=classic;html=1;rounded=0;" parent="HbEu6BMfXqlIxO53YDtJ-1" source="POaNXg2ljozko1DDRyKd-1" target="POaNXg2ljozko1DDRyKd-4" edge="1">
                    <mxGeometry width="50" height="50" relative="1" as="geometry">
                        <mxPoint x="660" y="240" as="sourcePoint"/>
                        <mxPoint x="710" y="190" as="targetPoint"/>
                    </mxGeometry>
                </mxCell>
                <mxCell id="HwYsEEPS5M7DtNmff2Jf-0" value="&lt;font style=&quot;font-size: 6px&quot;&gt;get user day limit&lt;/font&gt;" style="rounded=0;whiteSpace=wrap;html=1;" parent="HbEu6BMfXqlIxO53YDtJ-1" vertex="1">
                    <mxGeometry x="745" y="-100" width="60" height="20" as="geometry"/>
                </mxCell>
                <mxCell id="HwYsEEPS5M7DtNmff2Jf-1" value="" style="endArrow=classic;html=1;rounded=0;fontSize=6;entryX=0.5;entryY=0;entryDx=0;entryDy=0;" parent="HbEu6BMfXqlIxO53YDtJ-1" target="HwYsEEPS5M7DtNmff2Jf-0" edge="1">
                    <mxGeometry width="50" height="50" relative="1" as="geometry">
                        <mxPoint x="775" y="-140" as="sourcePoint"/>
                        <mxPoint x="835" y="-100" as="targetPoint"/>
                    </mxGeometry>
                </mxCell>
                <mxCell id="HwYsEEPS5M7DtNmff2Jf-2" value="GET cards exercise" style="text;html=1;align=center;verticalAlign=middle;resizable=0;points=[];autosize=1;strokeColor=none;fillColor=none;fontSize=6;" parent="HbEu6BMfXqlIxO53YDtJ-1" vertex="1">
                    <mxGeometry x="740" y="-160" width="70" height="10" as="geometry"/>
                </mxCell>
                <mxCell id="HwYsEEPS5M7DtNmff2Jf-3" value="&lt;font style=&quot;font-size: 6px&quot;&gt;get words from db&lt;/font&gt;" style="rounded=0;whiteSpace=wrap;html=1;" parent="HbEu6BMfXqlIxO53YDtJ-1" vertex="1">
                    <mxGeometry x="745" y="-60" width="60" height="20" as="geometry"/>
                </mxCell>
                <mxCell id="HwYsEEPS5M7DtNmff2Jf-4" value="" style="endArrow=classic;html=1;rounded=0;fontSize=6;" parent="HbEu6BMfXqlIxO53YDtJ-1" source="HwYsEEPS5M7DtNmff2Jf-0" target="HwYsEEPS5M7DtNmff2Jf-3" edge="1">
                    <mxGeometry width="50" height="50" relative="1" as="geometry">
                        <mxPoint x="785" y="-30" as="sourcePoint"/>
                        <mxPoint x="835" y="-80" as="targetPoint"/>
                    </mxGeometry>
                </mxCell>
                <mxCell id="HwYsEEPS5M7DtNmff2Jf-6" value="&lt;h6&gt;&lt;font style=&quot;font-size: 6px&quot;&gt;put word ids to user properties (replace)&lt;/font&gt;&lt;/h6&gt;" style="rounded=0;whiteSpace=wrap;html=1;spacing=1;" parent="HbEu6BMfXqlIxO53YDtJ-1" vertex="1">
                    <mxGeometry x="745" y="-20" width="60" height="20" as="geometry"/>
                </mxCell>
                <mxCell id="HwYsEEPS5M7DtNmff2Jf-7" value="" style="endArrow=classic;html=1;rounded=0;fontSize=6;" parent="HbEu6BMfXqlIxO53YDtJ-1" source="HwYsEEPS5M7DtNmff2Jf-3" target="HwYsEEPS5M7DtNmff2Jf-6" edge="1">
                    <mxGeometry width="50" height="50" relative="1" as="geometry">
                        <mxPoint x="775" y="10" as="sourcePoint"/>
                        <mxPoint x="825" y="-40" as="targetPoint"/>
                    </mxGeometry>
                </mxCell>
                <mxCell id="HwYsEEPS5M7DtNmff2Jf-9" value="&lt;h6&gt;&lt;font style=&quot;font-size: 6px&quot;&gt;play cards&lt;/font&gt;&lt;/h6&gt;" style="rounded=0;whiteSpace=wrap;html=1;spacing=1;" parent="HbEu6BMfXqlIxO53YDtJ-1" vertex="1">
                    <mxGeometry x="745" y="20" width="60" height="20" as="geometry"/>
                </mxCell>
                <mxCell id="HwYsEEPS5M7DtNmff2Jf-10" value="" style="endArrow=classic;html=1;rounded=0;fontSize=6;" parent="HbEu6BMfXqlIxO53YDtJ-1" source="HwYsEEPS5M7DtNmff2Jf-6" target="HwYsEEPS5M7DtNmff2Jf-9" edge="1">
                    <mxGeometry width="50" height="50" relative="1" as="geometry">
                        <mxPoint x="765" y="30" as="sourcePoint"/>
                        <mxPoint x="815" y="-20" as="targetPoint"/>
                    </mxGeometry>
                </mxCell>
            </root>
        </mxGraphModel>
    </diagram>
    <diagram id="FFC_FhsL61EWqXg1NO28" name="LOGIN">
        <mxGraphModel dx="1933" dy="838" grid="1" gridSize="10" guides="1" tooltips="1" connect="1" arrows="1" fold="1" page="1" pageScale="1" pageWidth="827" pageHeight="1169" math="0" shadow="0">
            <root>
                <mxCell id="487zSR6MeToZ3bML3SFd-0"/>
                <mxCell id="487zSR6MeToZ3bML3SFd-1" parent="487zSR6MeToZ3bML3SFd-0"/>
                <mxCell id="xSGnclevls8t6SqOcgY2-7" value="alternative" style="shape=umlFrame;whiteSpace=wrap;html=1;fontSize=12;width=70;height=30;" parent="487zSR6MeToZ3bML3SFd-1" vertex="1">
                    <mxGeometry x="-70" y="210" width="860" height="190" as="geometry"/>
                </mxCell>
                <mxCell id="487zSR6MeToZ3bML3SFd-4" value="" style="shape=umlLifeline;participant=umlActor;perimeter=lifelinePerimeter;whiteSpace=wrap;html=1;container=1;collapsible=0;recursiveResize=0;verticalAlign=top;spacingTop=36;outlineConnect=0;fontSize=6;" parent="487zSR6MeToZ3bML3SFd-1" vertex="1">
                    <mxGeometry x="30" y="40" width="20" height="440" as="geometry"/>
                </mxCell>
                <mxCell id="487zSR6MeToZ3bML3SFd-5" value="&lt;font style=&quot;font-size: 12px&quot;&gt;UI&lt;/font&gt;" style="shape=umlLifeline;perimeter=lifelinePerimeter;whiteSpace=wrap;html=1;container=1;collapsible=0;recursiveResize=0;outlineConnect=0;fontSize=6;" parent="487zSR6MeToZ3bML3SFd-1" vertex="1">
                    <mxGeometry x="160" y="40" width="100" height="440" as="geometry"/>
                </mxCell>
                <mxCell id="487zSR6MeToZ3bML3SFd-6" value="" style="html=1;points=[];perimeter=orthogonalPerimeter;fontSize=12;" parent="487zSR6MeToZ3bML3SFd-5" vertex="1">
                    <mxGeometry x="45" y="80" width="10" height="270" as="geometry"/>
                </mxCell>
                <mxCell id="487zSR6MeToZ3bML3SFd-7" value="creds" style="html=1;verticalAlign=bottom;endArrow=block;rounded=0;fontSize=12;" parent="487zSR6MeToZ3bML3SFd-1" edge="1">
                    <mxGeometry width="80" relative="1" as="geometry">
                        <mxPoint x="39.666666666666515" y="134" as="sourcePoint"/>
                        <mxPoint x="209.5" y="134" as="targetPoint"/>
                    </mxGeometry>
                </mxCell>
                <mxCell id="487zSR6MeToZ3bML3SFd-8" value="UserService" style="shape=umlLifeline;perimeter=lifelinePerimeter;whiteSpace=wrap;html=1;container=1;collapsible=0;recursiveResize=0;outlineConnect=0;fontSize=12;" parent="487zSR6MeToZ3bML3SFd-1" vertex="1">
                    <mxGeometry x="370" y="40" width="100" height="440" as="geometry"/>
                </mxCell>
                <mxCell id="487zSR6MeToZ3bML3SFd-9" value="" style="html=1;points=[];perimeter=orthogonalPerimeter;fontSize=12;" parent="487zSR6MeToZ3bML3SFd-8" vertex="1">
                    <mxGeometry x="45" y="88" width="10" height="252" as="geometry"/>
                </mxCell>
                <mxCell id="487zSR6MeToZ3bML3SFd-10" value="POST" style="html=1;verticalAlign=bottom;endArrow=block;rounded=0;fontSize=12;" parent="487zSR6MeToZ3bML3SFd-1" edge="1">
                    <mxGeometry width="80" relative="1" as="geometry">
                        <mxPoint x="209.66666666666652" y="143" as="sourcePoint"/>
                        <mxPoint x="419.5" y="143" as="targetPoint"/>
                    </mxGeometry>
                </mxCell>
                <mxCell id="xSGnclevls8t6SqOcgY2-0" value="UserModel" style="shape=umlLifeline;perimeter=lifelinePerimeter;whiteSpace=wrap;html=1;container=1;collapsible=0;recursiveResize=0;outlineConnect=0;fontSize=12;" parent="487zSR6MeToZ3bML3SFd-1" vertex="1">
                    <mxGeometry x="600" y="40" width="100" height="440" as="geometry"/>
                </mxCell>
                <mxCell id="xSGnclevls8t6SqOcgY2-1" value="" style="html=1;points=[];perimeter=orthogonalPerimeter;fontSize=12;" parent="xSGnclevls8t6SqOcgY2-0" vertex="1">
                    <mxGeometry x="45" y="100" width="10" height="80" as="geometry"/>
                </mxCell>
                <mxCell id="xSGnclevls8t6SqOcgY2-2" value="get user" style="html=1;verticalAlign=bottom;endArrow=block;rounded=0;fontSize=12;startArrow=block;startFill=1;" parent="487zSR6MeToZ3bML3SFd-1" edge="1">
                    <mxGeometry width="80" relative="1" as="geometry">
                        <mxPoint x="419.6666666666665" y="150" as="sourcePoint"/>
                        <mxPoint x="649.5" y="150" as="targetPoint"/>
                    </mxGeometry>
                </mxCell>
                <mxCell id="xSGnclevls8t6SqOcgY2-6" value="validate creds ()" style="html=1;verticalAlign=bottom;endArrow=block;rounded=0;fontSize=12;" parent="487zSR6MeToZ3bML3SFd-1" edge="1">
                    <mxGeometry x="-0.1659" y="10" width="80" relative="1" as="geometry">
                        <mxPoint x="419.73076923076906" y="168" as="sourcePoint"/>
                        <mxPoint x="419.73076923076906" y="188" as="targetPoint"/>
                        <Array as="points">
                            <mxPoint x="470" y="168"/>
                            <mxPoint x="470" y="188"/>
                        </Array>
                        <mxPoint as="offset"/>
                    </mxGeometry>
                </mxCell>
                <mxCell id="xSGnclevls8t6SqOcgY2-8" value="[creds not valid]" style="text;html=1;align=center;verticalAlign=middle;resizable=0;points=[];autosize=1;strokeColor=none;fillColor=none;fontSize=12;" parent="487zSR6MeToZ3bML3SFd-1" vertex="1">
                    <mxGeometry x="-70" y="240" width="100" height="20" as="geometry"/>
                </mxCell>
                <mxCell id="xSGnclevls8t6SqOcgY2-9" value="403" style="html=1;verticalAlign=bottom;endArrow=open;dashed=1;endSize=8;rounded=0;fontSize=12;" parent="487zSR6MeToZ3bML3SFd-1" edge="1">
                    <mxGeometry relative="1" as="geometry">
                        <mxPoint x="415" y="231" as="sourcePoint"/>
                        <mxPoint x="214.99999999999977" y="231" as="targetPoint"/>
                    </mxGeometry>
                </mxCell>
                <mxCell id="xSGnclevls8t6SqOcgY2-10" value="flash message" style="html=1;verticalAlign=bottom;endArrow=open;dashed=1;endSize=8;rounded=0;fontSize=12;" parent="487zSR6MeToZ3bML3SFd-1" edge="1">
                    <mxGeometry relative="1" as="geometry">
                        <mxPoint x="204.99999999999977" y="250" as="sourcePoint"/>
                        <mxPoint x="39.73076923076928" y="250" as="targetPoint"/>
                    </mxGeometry>
                </mxCell>
                <mxCell id="xSGnclevls8t6SqOcgY2-12" value="" style="endArrow=none;dashed=1;html=1;rounded=0;fontSize=12;exitX=0;exitY=0.4;exitDx=0;exitDy=0;exitPerimeter=0;entryX=0.999;entryY=0.375;entryDx=0;entryDy=0;entryPerimeter=0;" parent="487zSR6MeToZ3bML3SFd-1" edge="1">
                    <mxGeometry width="50" height="50" relative="1" as="geometry">
                        <mxPoint x="-70.00000000000023" y="271" as="sourcePoint"/>
                        <mxPoint x="789.1399999999999" y="266" as="targetPoint"/>
                    </mxGeometry>
                </mxCell>
                <mxCell id="xSGnclevls8t6SqOcgY2-14" value="[else]" style="text;html=1;align=center;verticalAlign=middle;resizable=0;points=[];autosize=1;strokeColor=none;fillColor=none;fontSize=12;" parent="487zSR6MeToZ3bML3SFd-1" vertex="1">
                    <mxGeometry x="-70" y="280" width="40" height="20" as="geometry"/>
                </mxCell>
                <mxCell id="q-lC4rHI8CaK8xmIXZ_E-0" value="update user&#39;s last login()" style="html=1;verticalAlign=bottom;endArrow=block;rounded=0;fontSize=12;" parent="487zSR6MeToZ3bML3SFd-1" edge="1">
                    <mxGeometry x="-0.1659" y="30" width="80" relative="1" as="geometry">
                        <mxPoint x="419.73076923076906" y="300" as="sourcePoint"/>
                        <mxPoint x="419.73076923076906" y="320" as="targetPoint"/>
                        <Array as="points">
                            <mxPoint x="470" y="300"/>
                            <mxPoint x="470" y="320"/>
                        </Array>
                        <mxPoint as="offset"/>
                    </mxGeometry>
                </mxCell>
                <mxCell id="q-lC4rHI8CaK8xmIXZ_E-1" value="200" style="html=1;verticalAlign=bottom;endArrow=open;dashed=1;endSize=8;rounded=0;fontSize=12;" parent="487zSR6MeToZ3bML3SFd-1" edge="1">
                    <mxGeometry relative="1" as="geometry">
                        <mxPoint x="415" y="344" as="sourcePoint"/>
                        <mxPoint x="214.99999999999977" y="344" as="targetPoint"/>
                    </mxGeometry>
                </mxCell>
                <mxCell id="q-lC4rHI8CaK8xmIXZ_E-2" value="redirect to user page" style="html=1;verticalAlign=bottom;endArrow=open;dashed=1;endSize=8;rounded=0;fontSize=12;" parent="487zSR6MeToZ3bML3SFd-1" edge="1">
                    <mxGeometry relative="1" as="geometry">
                        <mxPoint x="209.49999999999977" y="360" as="sourcePoint"/>
                        <mxPoint x="39.73076923076928" y="360" as="targetPoint"/>
                    </mxGeometry>
                </mxCell>
                <mxCell id="nSysFM7r4Y8o7ULQtFF8-0" value="GET WORDS OF THE DAY (wotd)" style="text;html=1;align=center;verticalAlign=middle;resizable=0;points=[];autosize=1;strokeColor=none;fillColor=none;fontSize=12;" parent="487zSR6MeToZ3bML3SFd-1" vertex="1">
                    <mxGeometry x="220" y="540" width="200" height="20" as="geometry"/>
                </mxCell>
                <mxCell id="nSysFM7r4Y8o7ULQtFF8-2" value="get words:&lt;br&gt;&lt;br&gt;last_practice day not null&lt;br&gt;sorted by today - last_practice_day - practice_range&lt;br&gt;limit user wotd setting" style="rounded=1;whiteSpace=wrap;html=1;arcSize=2;fontColor=#000000;fillColor=#ffffc0;strokeColor=#ff0000;fontSize=12;" parent="487zSR6MeToZ3bML3SFd-1" vertex="1">
                    <mxGeometry x="152.5" y="640" width="335" height="80" as="geometry"/>
                </mxCell>
                <mxCell id="nSysFM7r4Y8o7ULQtFF8-3" value="" style="edgeStyle=orthogonalEdgeStyle;html=1;verticalAlign=bottom;endArrow=open;endSize=8;strokeColor=#ff0000;rounded=0;fontSize=12;" parent="487zSR6MeToZ3bML3SFd-1" source="nSysFM7r4Y8o7ULQtFF8-2" target="hwfCwnhvKQXqcxcTrCeO-0" edge="1">
                    <mxGeometry relative="1" as="geometry">
                        <mxPoint x="320" y="750" as="targetPoint"/>
                    </mxGeometry>
                </mxCell>
                <mxCell id="TkUbxptNWDSkuylkK058-0" value="put word ids to user properties" style="rounded=1;whiteSpace=wrap;html=1;arcSize=7;fontColor=#000000;fillColor=#ffffc0;strokeColor=#ff0000;fontSize=12;" parent="487zSR6MeToZ3bML3SFd-1" vertex="1">
                    <mxGeometry x="480" y="955" width="120" height="40" as="geometry"/>
                </mxCell>
                <mxCell id="TkUbxptNWDSkuylkK058-1" value="" style="edgeStyle=orthogonalEdgeStyle;html=1;verticalAlign=bottom;endArrow=open;endSize=8;strokeColor=#ff0000;rounded=0;fontSize=12;" parent="487zSR6MeToZ3bML3SFd-1" source="TkUbxptNWDSkuylkK058-0" target="TkUbxptNWDSkuylkK058-4" edge="1">
                    <mxGeometry relative="1" as="geometry">
                        <mxPoint x="540" y="1030" as="targetPoint"/>
                    </mxGeometry>
                </mxCell>
                <mxCell id="TkUbxptNWDSkuylkK058-2" value="" style="ellipse;html=1;shape=startState;fillColor=#000000;strokeColor=#ff0000;fontSize=12;" parent="487zSR6MeToZ3bML3SFd-1" vertex="1">
                    <mxGeometry x="305" y="570" width="30" height="30" as="geometry"/>
                </mxCell>
                <mxCell id="TkUbxptNWDSkuylkK058-3" value="" style="edgeStyle=orthogonalEdgeStyle;html=1;verticalAlign=bottom;endArrow=open;endSize=8;strokeColor=#ff0000;rounded=0;fontSize=12;" parent="487zSR6MeToZ3bML3SFd-1" source="TkUbxptNWDSkuylkK058-2" target="nSysFM7r4Y8o7ULQtFF8-2" edge="1">
                    <mxGeometry relative="1" as="geometry">
                        <mxPoint x="310" y="620" as="targetPoint"/>
                    </mxGeometry>
                </mxCell>
                <mxCell id="TkUbxptNWDSkuylkK058-4" value="" style="ellipse;html=1;shape=endState;fillColor=#000000;strokeColor=#ff0000;fontSize=12;" parent="487zSR6MeToZ3bML3SFd-1" vertex="1">
                    <mxGeometry x="525" y="1060" width="30" height="30" as="geometry"/>
                </mxCell>
                <mxCell id="hwfCwnhvKQXqcxcTrCeO-0" value="got wotd &amp;lt; user wotd setting" style="rhombus;whiteSpace=wrap;html=1;fillColor=#ffffc0;strokeColor=#ff0000;fontSize=12;" parent="487zSR6MeToZ3bML3SFd-1" vertex="1">
                    <mxGeometry x="215" y="770" width="210" height="90" as="geometry"/>
                </mxCell>
                <mxCell id="hwfCwnhvKQXqcxcTrCeO-1" value="no" style="edgeStyle=orthogonalEdgeStyle;html=1;align=left;verticalAlign=bottom;endArrow=open;endSize=8;strokeColor=#ff0000;rounded=0;fontSize=12;" parent="487zSR6MeToZ3bML3SFd-1" source="hwfCwnhvKQXqcxcTrCeO-0" target="TkUbxptNWDSkuylkK058-0" edge="1">
                    <mxGeometry x="-1" relative="1" as="geometry">
                        <mxPoint x="480" y="815" as="targetPoint"/>
                    </mxGeometry>
                </mxCell>
                <mxCell id="hwfCwnhvKQXqcxcTrCeO-2" value="yes" style="edgeStyle=orthogonalEdgeStyle;html=1;align=left;verticalAlign=top;endArrow=open;endSize=8;strokeColor=#ff0000;rounded=0;fontSize=12;" parent="487zSR6MeToZ3bML3SFd-1" source="hwfCwnhvKQXqcxcTrCeO-0" target="hwfCwnhvKQXqcxcTrCeO-3" edge="1">
                    <mxGeometry x="-1" relative="1" as="geometry">
                        <mxPoint x="320" y="900" as="targetPoint"/>
                    </mxGeometry>
                </mxCell>
                <mxCell id="hwfCwnhvKQXqcxcTrCeO-3" value="add to wotd random worsd where last_practice_day is null" style="rounded=1;whiteSpace=wrap;html=1;arcSize=0;fontColor=#000000;fillColor=#ffffc0;strokeColor=#ff0000;fontSize=12;" parent="487zSR6MeToZ3bML3SFd-1" vertex="1">
                    <mxGeometry x="250" y="950" width="140" height="50" as="geometry"/>
                </mxCell>
                <mxCell id="hwfCwnhvKQXqcxcTrCeO-4" value="" style="edgeStyle=orthogonalEdgeStyle;html=1;verticalAlign=bottom;endArrow=open;endSize=8;strokeColor=#ff0000;rounded=0;fontSize=12;" parent="487zSR6MeToZ3bML3SFd-1" source="hwfCwnhvKQXqcxcTrCeO-3" target="TkUbxptNWDSkuylkK058-0" edge="1">
                    <mxGeometry relative="1" as="geometry">
                        <mxPoint x="320" y="1060" as="targetPoint"/>
                    </mxGeometry>
                </mxCell>
            </root>
        </mxGraphModel>
    </diagram>
    <diagram id="miD312i9-tKbIyZ4UeeN" name="USER GET">
        <mxGraphModel dx="1106" dy="838" grid="1" gridSize="10" guides="1" tooltips="1" connect="1" arrows="1" fold="1" page="1" pageScale="1" pageWidth="827" pageHeight="1169" math="0" shadow="0">
            <root>
                <mxCell id="r_Vtt8XdlHmq3V2koFGl-0"/>
                <mxCell id="r_Vtt8XdlHmq3V2koFGl-1" parent="r_Vtt8XdlHmq3V2koFGl-0"/>
            </root>
        </mxGraphModel>
    </diagram>
</mxfile>